<?xml version="1.0" encoding="utf-8" ?>
<svg xmlns="http://www.w3.org/2000/svg" xmlns:xlink="http://www.w3.org/1999/xlink" width="512" height="512">
	<path fill="#EDBDA8" fill-opacity="0.98431373" transform="scale(0.666667 0.666667)" d="M503.564 374.528C505.796 375.117 508.309 376.131 509.596 378.188L511.461 381.521C512.276 382.798 512.611 384.456 513.127 385.875C513.839 387.834 514.746 389.679 515.268 391.71C515.901 394.172 516.085 396.826 516.838 399.231L513.891 400.313L513.878 399.954L513.836 399.363C513.768 398.345 513.718 397.597 513.194 396.695C512.653 395.763 512.314 394.923 512.127 393.855C511.122 388.113 507.632 382.985 504.148 378.511C503.684 377.915 503.423 377.457 502.688 377.195C502.064 377.631 501.653 377.869 500.895 377.931L500.261 377.971C501.784 376.913 502.608 376.155 503.564 374.528Z"/>
	<path fill="#000C50" transform="scale(0.666667 0.666667)" d="M615.358 452.213L671.523 453.476L670.195 458.298L666.309 458.369L615.828 458.132L615.358 452.213Z"/>
	<path fill="#005429" transform="scale(0.666667 0.666667)" d="M109.335 728.697L56.9267 728.764L39.4624 728.744C35.8975 728.737 32.2263 728.915 28.6875 728.481C27.5951 727.753 27.4359 727.569 26.8411 726.399C27.0418 725.112 27.0761 724.878 27.9375 723.821C38.8666 722.648 50.5318 723.439 61.5477 723.433L94.8832 723.691C100.262 723.764 105.66 723.62 111.027 724.009C110.419 724.381 109.326 724.781 109.178 725.497C108.962 726.545 109.202 727.647 109.335 728.697Z"/>
	<path fill="#005429" transform="scale(0.666667 0.666667)" d="M258.298 164.657C258.751 160.722 257.936 156.951 257.624 153.034C256.891 143.833 256.959 134.084 259.532 125.134C261.19 119.37 263.849 116.619 269.043 113.747C271.78 112.234 274.78 110.283 277.813 109.489C283.546 107.989 289.592 109.528 295.223 110.865C298.715 111.695 302.26 112.482 305.655 113.654C308.035 114.475 310.247 115.759 312.629 116.544C315.737 117.568 319.228 116.73 322.312 117.718C324.084 118.286 325.194 119.208 325.983 120.897C327.444 124.026 326.584 127.771 325.488 130.875L324.427 133.529C313.205 133.446 302.442 131.11 291.606 128.401C289.934 132.574 288.045 136.609 285.932 140.575C284.736 142.821 283.563 145.18 281.812 147.051C281.53 147.114 281.249 147.209 280.96 147.216C279.907 148.216 278.874 149.168 278.007 150.34C276.622 152.214 274.612 153.535 272.627 154.699C271.431 155.4 269.961 155.302 268.648 155.094C267.791 154.299 267.002 153.804 266.062 153.137C265.526 152.757 265.327 152.437 265.067 151.851C263.37 156.227 260.875 160.727 258.298 164.657ZM265.067 151.851C265.327 152.437 265.526 152.757 266.062 153.137C267.002 153.804 267.791 154.299 268.648 155.094C269.961 155.302 271.431 155.4 272.627 154.699C274.612 153.535 276.622 152.214 278.007 150.34C278.874 149.168 279.907 148.216 280.96 147.216C278.941 144.269 276.894 140.88 273.136 140.061C271.38 139.678 269.019 140.49 267.625 141.566C266.287 142.599 265.137 144.128 264.45 145.658C264.44 147.795 264.311 149.816 265.067 151.851Z"/>
	<path fill="#EDBDA8" fill-opacity="0.97647059" transform="scale(0.666667 0.666667)" d="M265.067 151.851C264.311 149.816 264.44 147.795 264.45 145.658C265.137 144.128 266.287 142.599 267.625 141.566C269.019 140.49 271.38 139.678 273.136 140.061C276.894 140.88 278.941 144.269 280.96 147.216C279.907 148.216 278.874 149.168 278.007 150.34C276.622 152.214 274.612 153.535 272.627 154.699C271.431 155.4 269.961 155.302 268.648 155.094C267.791 154.299 267.002 153.804 266.062 153.137C265.526 152.757 265.327 152.437 265.067 151.851Z"/>
	<path fill="#005429" transform="scale(0.666667 0.666667)" d="M355.193 716.703C355.792 714.218 356.899 711.663 358.136 709.436C361.403 703.554 365.897 696.673 371.115 692.363C372.488 691.23 374.105 689.981 375.85 689.552C378.697 688.852 381.917 689.65 384.375 691.185C392.505 696.262 393.717 705.573 395.815 714.056C398.596 714.14 402.154 712.629 404.788 711.799C411.793 709.593 418.647 707.53 425.25 704.266C426.752 703.523 427.568 702.875 428.648 701.574C434.832 700.796 439.726 701.154 444.808 705.203C449.088 708.613 451.899 714.054 452.572 719.438C452.735 720.744 453.007 722.094 453.039 723.408C451.391 723.871 449.124 723.631 447.394 723.636L436.104 723.664L374.227 723.101L366.81 723.002C366.538 722.999 365.053 723.095 364.865 722.985C362.655 721.691 361.53 717.972 358.597 717.739C357.397 717.644 356.305 717.137 355.193 716.703Z"/>
	<path fill="#000C50" transform="scale(0.666667 0.666667)" d="M470.937 196.824C467.414 194.177 465.229 192.111 464.418 187.541C464.052 185.483 464.75 182.758 465.95 181.046C470.014 175.255 479.97 174.146 486.363 173.258C495.148 172.039 506.04 171.311 514.688 173.14L515.297 173.263C518.21 173.881 521.121 175.149 523.582 176.812L524.085 177.146C529.853 181.083 532.704 188.261 533.911 194.882C535.847 205.508 533.215 216.188 529.682 226.176C528.663 229.058 527.685 232.21 526.204 234.877C523.462 230.948 521.631 225.604 519.523 221.243L520.048 220.242C521.252 217.898 523.131 214.278 522.191 211.612L522.002 211.125C521.438 209.575 520.674 208.358 519.321 207.353C518.045 206.405 516.572 205.801 514.972 206.129C510.807 206.983 507.799 211.459 505.61 214.773C499.697 209.566 496.948 203.177 495.696 195.429L495.604 194.849C490.008 195.232 484.216 197.117 478.58 196.465C476.416 196.214 474.308 194.953 472.125 194.564C471.44 195.338 471.197 195.824 470.937 196.824Z"/>
	<path fill="#EABCA2" transform="scale(0.666667 0.666667)" d="M470.937 196.824C471.197 195.824 471.44 195.338 472.125 194.564C474.308 194.953 476.416 196.214 478.58 196.465C484.216 197.117 490.008 195.232 495.604 194.849L495.696 195.429C496.948 203.177 499.697 209.566 505.61 214.773C507.799 211.459 510.807 206.983 514.972 206.129C516.572 205.801 518.045 206.405 519.321 207.353C520.674 208.358 521.438 209.575 522.002 211.125L522.191 211.612C523.131 214.278 521.252 217.898 520.048 220.242L519.523 221.243C521.631 225.604 523.462 230.948 526.204 234.877C522.831 244.81 516.568 251.672 508.13 257.698C506.169 259.098 504.259 260.615 502.105 261.708L501.787 262.505L501.578 262.291C500.697 260.738 499.836 259.892 498.538 258.654L496.004 255.805L495.746 255.36C494.549 254.238 492.672 252.267 491.056 251.985L490.759 249.828C490.346 248.747 489.631 247.925 488.925 247.026L477.866 248.815L477.772 248.49C475.792 246.573 473.212 244.182 472.644 241.358C472.235 239.323 472.787 236.703 472.996 234.654C473.109 233.543 473.368 232.168 473.146 231.068C472.705 228.876 470.798 227.057 470.433 224.814C470.218 223.494 470.983 221.061 470.647 220.029C470.274 218.88 466.569 216.832 465.722 215.438C463.768 212.22 470.134 206.722 471.085 203.434C471.615 201.601 471.887 198.525 470.937 196.824Z"/>
	<path fill="#E6A672" transform="scale(0.666667 0.666667)" d="M488.925 247.026L508.758 234.793L500.252 248.681C499.162 250.501 497.483 254.316 495.746 255.36C494.549 254.238 492.672 252.267 491.056 251.985L490.759 249.828C490.346 248.747 489.631 247.925 488.925 247.026Z"/>
	<path fill="#EABCA2" transform="scale(0.666667 0.666667)" d="M280.96 147.216C281.249 147.209 281.53 147.114 281.812 147.051C283.563 145.18 284.736 142.821 285.932 140.575C288.045 136.609 289.934 132.574 291.606 128.401C302.442 131.11 313.205 133.446 324.427 133.529C323.736 136.806 323.109 140.141 322.117 143.343C321.279 146.046 319.407 149.109 319.106 151.874C318.837 154.332 320.937 157.968 321.896 160.285C322.102 160.784 322.775 162.307 322.684 162.855C322.545 163.687 321.753 165.159 321.275 165.902C320.326 167.381 319.142 168.702 317.644 169.631C316.239 170.502 314.734 171.008 313.175 171.52C312.032 177.08 310.822 180.762 306.695 184.85C305.271 186.261 303.602 187.622 302.384 189.209L300.384 197.848C290.237 194.418 283.737 188.066 277.252 179.849C276.591 183.596 275.858 187.717 278.196 191.041C280.284 194.008 283.611 196.054 286.539 198.098C286.067 198.987 285.365 199.844 285.444 200.856C286.337 201.854 286.502 203.286 286.48 204.635L286.399 205.439C285.815 206.041 285.756 206.071 285 206.287C284.777 206.184 284.408 206.027 284.229 205.875C283.619 205.357 283.565 205.055 282.741 204.801L282.073 204.606L281.928 203.804L281.413 204.368C281.017 204.835 280.2 204.967 279.607 205.173C279.094 205.18 278.567 205.206 278.062 205.09C274.948 204.376 272.026 200.863 269.808 198.684C264.64 193.607 258.543 188.198 254.968 181.826C254.794 181.516 254.515 181.238 254.466 180.886C254.344 180.006 254.904 178.048 255.103 177.107L258.298 164.657C260.875 160.727 263.37 156.227 265.067 151.851C265.327 152.437 265.526 152.757 266.062 153.137C267.002 153.804 267.791 154.299 268.648 155.094C269.961 155.302 271.431 155.4 272.627 154.699C274.612 153.535 276.622 152.214 278.007 150.34C278.874 149.168 279.907 148.216 280.96 147.216Z"/>
	<path fill="#E6A672" transform="scale(0.666667 0.666667)" d="M277.252 179.849L277.142 172.555C280.153 176.069 283.215 180.377 287.062 182.981C292.029 186.343 296.607 187.826 302.384 189.209L300.384 197.848C290.237 194.418 283.737 188.066 277.252 179.849Z"/>
	<path fill="#005429" transform="scale(0.666667 0.666667)" d="M385.321 29.882C396.794 27.7921 408.933 29.7833 420.375 31.1665C473.167 37.5486 524.799 54.4169 568.768 84.8747C609.191 112.876 642.816 151.318 662.501 196.597C670.377 214.714 675.993 234.363 679.536 253.793C682.536 270.251 684.022 286.673 685.814 303.271L687.262 316.992C688.168 324.211 689.161 332.023 688.378 339.302C688.184 341.101 687.36 343.361 686.282 344.819C685.466 345.924 684.727 346.274 683.404 346.428C682.022 346.589 680.828 346.454 679.74 345.512C675.79 342.09 674.631 337.106 674.345 332.089C674.076 327.365 674.534 322.623 674.219 317.902C671.629 279.053 667.795 239.134 651.831 203.16C646.157 190.372 638.782 178.333 630.719 166.926C618.245 149.276 604.38 133.97 588.345 119.46C546.881 81.9405 490.473 58.23 435.375 50.3671L410.716 47.8814C401.465 47.2416 393.231 47.3359 384.25 44.3795C383.373 42.6886 382.481 40.535 382.174 38.6496C381.588 35.0482 383.352 32.6561 385.321 29.882Z"/>
	<path fill="#237D40" transform="scale(0.666667 0.666667)" d="M521.907 361.95C523.13 324.426 530.08 287.562 536.673 250.688C537.207 247.699 537.498 244.671 537.818 241.654C537.97 240.222 537.917 238.261 538.482 236.948C545.927 241.008 553.514 243.029 561.562 245.53L579.677 252.052C582.65 253.275 585.951 254.322 588.63 256.112C591.129 257.781 593.267 260.234 594.91 262.734C598.855 268.735 600.926 277.01 602.947 283.881L609.942 310.917C612.837 322.314 615.909 333.624 617.98 345.21C619.264 352.4 620.466 360.523 619.52 367.818C619.263 369.801 618.378 371.592 617.427 373.329C612.797 381.779 603.059 385.746 594.455 388.953C588.151 390.115 582.228 392.382 576.154 394.368L547.84 403.25C540.564 405.452 533.065 407.958 525.508 408.927C522.748 396.747 517.532 386.09 511.8 375.105L521.062 371.923L521.185 371.021C521.156 367.944 521.499 364.997 521.907 361.95Z"/>
	<path fill="#005429" transform="scale(0.666667 0.666667)" d="M523.134 361.55L523.511 362.625L524.497 363.058C523.882 365.663 523.258 369.213 521.185 371.021C521.156 367.944 521.499 364.997 521.907 361.95L523.134 361.55Z"/>
	<path fill="#000C50" transform="scale(0.666667 0.666667)" d="M553.271 261.562L554.438 261.35L554.956 261.75C554.258 263.572 550.451 264.323 549.222 266.174C548.337 267.506 547.909 270.478 547.5 272.062L546.741 272.666L546.113 272.206C545.935 270.585 546.027 267.632 546.846 266.16C548.048 263.998 550.95 262.124 553.271 261.562Z"/>
	<path fill="#002E42" transform="scale(0.666667 0.666667)" d="M523.134 361.55C525.254 348.899 529.902 336.691 533.728 324.477L539.451 306.087C540.973 301.412 542.52 296.54 545.244 292.4L524.497 363.058L523.511 362.625L523.134 361.55Z"/>
	<path fill="#000C50" transform="scale(0.666667 0.666667)" d="M566.887 257.903C566.566 260.589 565.644 263.285 564.932 265.892C563.776 270.124 562.701 274.29 562.015 278.625C558.693 299.596 564.738 321.969 569.435 342.345C572.579 342.94 575.082 343.533 577.309 345.938C577.451 346.716 577.535 346.766 577.253 347.574C576.804 348.861 576.011 349.834 574.844 350.539C572.301 352.073 569.154 352.744 566.468 354.04L543.409 365.419L536.982 366.998L567.51 349.523L565.312 339.667C561.931 326.248 558.641 313.243 557.64 299.385C556.83 288.182 557.427 273.345 562.817 263.217C563.863 261.251 565.436 259.575 566.887 257.903Z"/>
	<path fill="#77C054" transform="scale(0.666667 0.666667)" d="M384.25 44.3795C379.983 44.0075 375.71 44.3559 371.454 44.6215C360.811 45.2857 350.174 46.9778 339.683 48.8533C270.231 61.2698 203.045 94.703 157.328 149.344C149.08 159.203 141.426 169.741 135.044 180.908C132.82 184.799 130.909 188.86 128.449 192.616C127.411 194.202 126.329 195.878 124.688 196.883C123.463 196.788 122.634 196.417 122.046 195.217C121.411 193.923 121.448 191.969 121.313 190.521C120.852 185.61 120.756 175.694 116.339 172.704C115.284 171.99 114.033 171.782 112.781 171.928C108.241 172.46 104.027 178.466 101.683 181.977C94.6837 192.463 89.5741 205.083 84.2884 216.512L64.2002 259.846L60.0006 269.812C59.0799 272.019 58.1612 274.486 56.568 276.303C55.6513 277.349 54.65 278.025 53.2284 278.061C51.6209 278.102 50.3373 277.152 49.2499 276.065C44.9029 271.722 43.5788 265.345 43.7665 259.426C44.0803 249.523 48.702 238.805 52.3251 229.724C58.5957 214.009 66.2028 199.355 74.8832 184.849C82.2084 172.607 90.1456 160.671 99.166 149.602C109.321 137.142 120.594 125.752 132.4 114.869C162.3 87.3064 197.672 67.0993 235.423 52.3755C269.405 39.1219 305.505 30.8819 341.941 28.8013C351.318 28.2659 361.19 28.0303 370.577 28.5963L385.321 29.882C383.352 32.6561 381.588 35.0482 382.174 38.6496C382.481 40.535 383.373 42.6886 384.25 44.3795Z"/>
	<path fill="#005429" transform="scale(0.666667 0.666667)" d="M124.494 724.276C122.372 720.846 118.913 718.175 116 715.438L98.9387 699.504C91.0382 691.782 83.8657 682.685 77.1961 673.875C62.8545 654.931 50.5203 634.743 40.3413 613.266C34.7361 601.439 29.7583 589.562 26.0485 576.994C24.0754 570.309 21.729 562.807 21.6776 555.796C21.6416 550.9 22.1965 545.376 25.9384 541.787C30.6712 537.247 37.6248 538.408 43.6526 538.526C42.6489 535.15 41.4731 531.518 40.8172 528.078C39.4728 521.026 39.5862 513.901 39.6757 506.759C39.742 501.465 39.9612 495.515 41.3207 490.371C42.9602 484.168 45.3477 478.484 50.2231 474.089C52.4366 472.093 55.2418 470.398 58.3125 470.641C61.7201 470.91 64.6732 473.263 67.0942 475.481C71.7693 479.765 75.5839 484.485 79.4042 489.507C89.3218 502.544 98.0343 516.216 106.753 530.063L118.707 549.202L134.118 577.851L149.668 608.784C153.122 615.884 155.975 623.756 160.905 629.956C162.199 627.095 163.005 623.729 164.574 621.062C165.558 619.389 167.242 618.164 169.136 617.752C170.896 617.37 172.624 618.098 174.036 619.125C178.323 622.238 181.506 629.408 183.943 633.984C185.958 637.767 188.381 641.299 190.312 645.129C191.56 647.601 192.787 650.433 193.098 653.212C193.349 655.452 192.742 658.045 192.502 660.304L191.572 671.082C191.172 674.908 190.41 679.299 191.034 683.097C192.188 690.132 197.075 695.547 202.721 699.508C204.459 703.68 204.996 707.704 205.594 712.146C199.461 713.573 191.42 715.361 186.245 718.975C184.547 720.161 182.968 721.601 181.393 722.947C180.974 723.305 179.981 724.329 179.498 724.514C178.873 724.752 177.137 724.626 176.425 724.645L165.433 724.523L139.05 724.529C134.202 724.547 129.529 724.911 124.686 724.411L124.494 724.276Z"/>
	<path fill="#000C50" transform="scale(0.666667 0.666667)" d="M477.772 248.49L477.866 248.815L488.925 247.026C489.631 247.925 490.346 248.747 490.759 249.828L491.056 251.985C492.672 252.267 494.549 254.238 495.746 255.36L496.004 255.805L498.538 258.654C499.836 259.892 500.697 260.738 501.578 262.291L501.787 262.505L504.656 263.314C506.825 263.652 508.199 264.855 509.502 266.583L511.516 269.896C510.52 272.164 508.553 275.375 508.26 277.764C507.771 281.753 508.595 286.645 508.717 290.711C508.882 296.202 508.588 301.895 508.289 307.386L505.145 351.871C504.555 359.385 503.576 366.985 503.564 374.528C502.608 376.155 501.784 376.913 500.261 377.971L500.895 377.931C501.653 377.869 502.064 377.631 502.688 377.195C503.423 377.457 503.684 377.915 504.148 378.511C507.632 382.985 511.122 388.113 512.127 393.855C512.314 394.923 512.653 395.763 513.194 396.695C513.718 397.597 513.768 398.345 513.836 399.363L513.878 399.954L513.891 400.313L516.838 399.231C518.072 402.847 519.941 406.633 520.86 410.295C522.363 409.585 523.873 409.177 525.508 408.927C533.065 407.958 540.564 405.452 547.84 403.25L576.154 394.368C582.228 392.382 588.151 390.115 594.455 388.953L597.116 397.25L601.648 413.301L602.961 417.907L615.358 452.213L615.828 458.132L666.309 458.369L670.195 458.298C668.117 464.433 666.82 471.083 665.184 477.371C664.83 478.735 664.636 480.985 663.938 482.15C663.918 482.183 663.242 482.549 663.197 482.567L662.467 482.796L596.625 487.639L581.161 488.966C578.601 489.174 575.913 489.567 573.35 489.471L573.474 512.25L573.444 554.274L572.969 568.537L572.695 667.919L572.548 690C572.408 693.002 571.526 695.984 571.569 699C571.585 700.041 571.834 701.1 572.1 702.099C571.896 702.853 570.954 704.058 570.528 704.762C568.011 702.01 565.585 699.743 562.526 697.587C561.322 696.631 560.751 696.005 560.277 694.53L559.689 694.753C557.777 695.508 556.267 696.925 554.262 697.534C547.911 699.461 540.947 700.029 534.423 701.376C526.116 703.092 518.323 705.531 510.221 707.93C509.448 711.84 506.188 716.668 504.287 720.15C502.911 714.697 501.562 709.601 501.115 703.956C493.778 708.762 489.034 715.258 483.327 721.726C483.153 721.963 483.057 722.124 482.812 722.315C481.432 723.399 473.162 722.466 471.188 722.53C467.955 722.634 465.086 723.425 461.812 722.929L461.08 720.486L460.719 720.846C460.246 721.356 460.216 721.605 459.954 722.205L459.562 722.93C457.505 723.162 455.003 722.927 453.039 723.408C453.007 722.094 452.735 720.744 452.572 719.438C451.899 714.054 449.088 708.613 444.808 705.203C439.726 701.154 434.832 700.796 428.648 701.574C428.709 698.612 431.112 694.378 430.407 691.688C429.877 691.621 429.754 691.622 429.188 691.462C428.421 691.244 427.053 690.592 426.746 689.812C425.967 687.833 426.601 683.356 426.802 681.261L430.899 641.594L440.167 560.542L440.783 555.163C440.826 554.844 441.125 553.499 441.055 553.261C440.868 552.629 439.482 551.239 439.021 550.631L430.901 539.997L411.696 513.183C403.674 502.171 394.731 490.996 388.422 478.908C385.622 473.542 385.252 468.208 387.087 462.457C388.05 459.44 390.054 457.175 392.826 455.662C396.661 453.569 401.53 452.581 405.758 451.567L418.676 448.272L463.235 436.864L474.683 433.872C476.839 433.296 479.232 432.824 481.231 431.812L480.767 431.184L480.316 430.861C478.772 429.484 478.797 427.101 478.777 425.195L478.773 424.495L398.121 423.383L378.194 373.356C375.758 367.034 372.391 360.227 370.893 353.647C370.599 352.36 370.473 351.558 370.952 350.317C371.719 349.771 372.302 349.601 373.22 349.529C377.315 349.207 381.594 349.477 385.711 349.513L407.296 349.773L452.243 350.373L452.99 318.323C453.415 302.455 453.667 286.336 456.689 270.709C457.537 266.329 458.313 261.92 459.962 257.756C462.681 250.892 471.547 251.184 477.278 248.709L477.772 248.49ZM533.51 491.482C531.079 491.719 528.466 492.159 526.041 491.859C515.472 492.338 505.476 493.573 494.856 492.59C493.028 492.421 491.187 492.18 489.374 492.608C485.355 493.558 481.785 495.885 478.411 498.158C482.215 507.316 487.149 515.599 491.823 524.297L523.959 582.175C525.377 584.75 526.813 587.377 528.488 589.791C530.146 592.18 532.289 594.519 533.457 597.19C534.594 599.791 534.895 603.933 533.952 606.648L533.806 606.988C530.472 611.987 530.237 617.1 529.312 622.837C527.979 631.115 524.83 637.766 519.219 643.987C514.588 648.04 509.828 651.594 504.774 655.09C504.212 655.479 501.42 657.224 501.357 657.819C502.281 664.487 501.37 671.951 501.359 678.722L501.324 696.923C501.312 698.971 501.692 702.031 501.115 703.956C501.562 709.601 502.911 714.697 504.287 720.15C506.188 716.668 509.448 711.84 510.221 707.93C518.323 705.531 526.116 703.092 534.423 701.376C540.947 700.029 547.911 699.461 554.262 697.534C556.267 696.925 557.777 695.508 559.689 694.753L560.277 694.53C560.751 696.005 561.322 696.631 562.526 697.587C565.585 699.743 568.011 702.01 570.528 704.762C570.954 704.058 571.896 702.853 572.1 702.099C571.834 701.1 571.585 700.041 571.569 699C571.526 695.984 572.408 693.002 572.548 690L572.695 667.919L572.969 568.537L573.444 554.274L573.474 512.25L573.35 489.471L533.51 491.482ZM477.772 248.49L477.278 248.709C471.547 251.184 462.681 250.892 459.962 257.756C458.313 261.92 457.537 266.329 456.689 270.709C453.667 286.336 453.415 302.455 452.99 318.323L452.243 350.373L470.377 350.667C469.167 335.936 464.588 321.381 462.562 306.763C461.657 300.225 462.051 293.452 461.968 286.863C461.91 282.34 461.25 277.592 462.663 273.221C464.148 275.431 463.652 279.101 463.797 281.735C464.171 288.523 464.086 295.586 464.765 302.321C465.703 311.633 468.263 320.928 469.74 330.188L472.606 355.032C474.09 366.204 477.196 378.449 481.372 388.877L488.086 340.132L491.242 324.938C491.577 322.877 492.04 320.804 491.863 318.712C493.289 310.529 494.618 302.3 496.7 294.25L499.994 282.756C500.219 282.015 501.125 279.962 501.054 279.281C501.034 279.085 500.37 278.18 500.254 277.992C498.535 275.208 496.644 272.71 497.254 269.282C499.516 266.652 501.548 264.885 504.656 263.314L501.787 262.505L501.578 262.291C500.697 260.738 499.836 259.892 498.538 258.654L496.004 255.805L495.746 255.36C494.549 254.238 492.672 252.267 491.056 251.985L490.759 249.828C490.346 248.747 489.631 247.925 488.925 247.026L477.866 248.815L477.772 248.49ZM461.08 720.486L461.812 722.929C465.086 723.425 467.955 722.634 471.188 722.53C473.162 722.466 481.432 723.399 482.812 722.315C483.057 722.124 483.153 721.963 483.327 721.726C489.034 715.258 493.778 708.762 501.115 703.956C501.692 702.031 501.312 698.971 501.324 696.923L501.359 678.722C501.37 671.951 502.281 664.487 501.357 657.819C496.894 660.655 489.395 666.019 483.827 665.141L483.562 664.609C485.84 661.468 488.63 658.722 490.989 655.637C492.684 653.421 493.941 650.97 495.278 648.532C499.408 641.001 499.537 631.443 499.866 623.1L481.394 602.781C477.743 598.57 474.161 593.926 470.023 590.212L469.564 606.129L468.742 648.915L468.236 678.938C468.082 683.143 468.179 687.389 467.479 691.55L462.386 691.694C461.893 696.542 461.778 701.365 461.766 706.233L461.745 714.968C461.73 716.845 461.898 718.744 461.08 720.486ZM500.261 377.971C499.63 378.177 499.018 378.342 498.432 378.653C496.198 379.376 493.659 380.127 491.601 381.26L491.15 381.496L491.812 381.972C491.362 382.817 491.198 382.816 491.334 383.812L490.893 384.39C490.474 384.946 490.191 385.462 489.927 386.109C490.24 386.814 490.535 387.454 490.907 388.129C492.29 390.643 491.256 395.426 492.151 398.438L490.945 398.953L492.288 399.375C493.522 399.604 494.418 399.876 495.515 400.486C496.015 400.764 496.889 401.232 497.438 401.33C497.892 401.41 498.654 400.929 499.125 400.988C499.582 401.046 500.4 401.558 500.852 401.76C500.765 402.358 500.666 402.544 500.883 403.125L498.267 404.349C502.528 404.24 507.368 402.488 511.388 401.179L511.814 401.125L513.891 400.313L513.878 399.954L513.836 399.363C513.768 398.345 513.718 397.597 513.194 396.695C512.653 395.763 512.314 394.923 512.127 393.855C511.122 388.113 507.632 382.985 504.148 378.511C503.684 377.915 503.423 377.457 502.688 377.195C502.064 377.631 501.653 377.869 500.895 377.931L500.261 377.971ZM485.613 384.915L481.371 388.899L482.755 395.564C484.088 396.465 487.902 395.062 488.321 396.562L488.438 397.598C489.269 398.13 490.042 398.557 490.945 398.953L492.151 398.438C491.256 395.426 492.29 390.643 490.907 388.129C490.535 387.454 490.24 386.814 489.927 386.109C490.191 385.462 490.474 384.946 490.893 384.39L491.334 383.812C491.198 382.816 491.362 382.817 491.812 381.972L491.15 381.496C489.296 382.307 486.969 383.366 485.613 384.915ZM492.288 399.375C491.271 401.325 488.986 404.834 489.586 407.087L489.938 408.014C491.436 408.393 493.938 406.578 495.32 405.807C496.238 404.975 497.118 404.715 498.267 404.349L500.883 403.125C500.666 402.544 500.765 402.358 500.852 401.76C500.4 401.558 499.582 401.046 499.125 400.988C498.654 400.929 497.892 401.41 497.438 401.33C496.889 401.232 496.015 400.764 495.515 400.486C494.418 399.876 493.522 399.604 492.288 399.375Z"/>
	<path fill="#EABCA2" fill-opacity="0.29019609" transform="scale(0.666667 0.666667)" d="M485.613 384.915C486.969 383.366 489.296 382.307 491.15 381.496L491.812 381.972C491.362 382.817 491.198 382.816 491.334 383.812L490.893 384.39C490.474 384.946 490.191 385.462 489.927 386.109C490.24 386.814 490.535 387.454 490.907 388.129C492.29 390.643 491.256 395.426 492.151 398.438L490.945 398.953C490.042 398.557 489.269 398.13 488.438 397.598L488.321 396.562C487.902 395.062 484.088 396.465 482.755 395.564L481.371 388.899L485.613 384.915ZM485.613 384.915L481.371 388.899L482.755 395.564L489.365 395.452C488.589 392.773 486.728 390.118 486.206 387.467L486.125 387L485.661 386.438L486.085 385.439L485.613 384.915Z"/>
	<path fill="#EABCA2" fill-opacity="0.66666669" transform="scale(0.666667 0.666667)" d="M500.261 377.971L500.895 377.931C501.653 377.869 502.064 377.631 502.688 377.195C503.423 377.457 503.684 377.915 504.148 378.511C507.632 382.985 511.122 388.113 512.127 393.855C512.314 394.923 512.653 395.763 513.194 396.695C513.718 397.597 513.768 398.345 513.836 399.363L513.878 399.954L513.891 400.313L511.814 401.125L511.388 401.179C507.368 402.488 502.528 404.24 498.267 404.349L500.883 403.125C500.666 402.544 500.765 402.358 500.852 401.76C500.4 401.558 499.582 401.046 499.125 400.988C498.654 400.929 497.892 401.41 497.438 401.33C496.889 401.232 496.015 400.764 495.515 400.486C494.418 399.876 493.522 399.604 492.288 399.375L490.945 398.953L492.151 398.438C491.256 395.426 492.29 390.643 490.907 388.129C490.535 387.454 490.24 386.814 489.927 386.109C490.191 385.462 490.474 384.946 490.893 384.39L491.334 383.812C491.198 382.816 491.362 382.817 491.812 381.972L491.15 381.496L491.601 381.26C493.659 380.127 496.198 379.376 498.432 378.653C499.018 378.342 499.63 378.177 500.261 377.971ZM491.601 381.26L491.15 381.496L491.812 381.972C491.362 382.817 491.198 382.816 491.334 383.812L490.893 384.39C490.474 384.946 490.191 385.462 489.927 386.109C490.24 386.814 490.535 387.454 490.907 388.129C492.29 390.643 491.256 395.426 492.151 398.438L490.945 398.953L492.288 399.375C493.522 399.604 494.418 399.876 495.515 400.486C496.015 400.764 496.889 401.232 497.438 401.33C497.892 401.41 498.654 400.929 499.125 400.988C499.582 401.046 500.4 401.558 500.852 401.76C500.765 402.358 500.666 402.544 500.883 403.125L498.267 404.349C502.528 404.24 507.368 402.488 511.388 401.179L511.323 400.584L510.188 399.741L509.185 398.648C507.392 396.944 505.081 397.799 502.892 397.576C500.609 397.344 499.084 396.615 496.688 396.694L496.466 397.012C495.623 397.938 494.108 398.041 492.938 398.092L492.617 397.125C492.977 395.439 492.942 393.933 493.117 392.25C493.323 390.272 494.114 388.775 493.413 386.764L493.287 386.447L492.778 385.312L493.37 383.953C493.78 382.957 493.324 382.202 492.929 381.25L491.601 381.26ZM493.287 386.447L493.413 386.764C494.114 388.775 493.323 390.272 493.117 392.25C492.942 393.933 492.977 395.439 492.617 397.125L492.938 398.092C494.108 398.041 495.623 397.938 496.466 397.012L496.688 396.694C499.084 396.615 500.609 397.344 502.892 397.576C505.081 397.799 507.392 396.944 509.185 398.648L510.188 399.741L511.323 400.584L511.388 401.179L511.814 401.125L512.276 400.305L511.816 399C509.91 397.721 509.664 395.342 507.562 393.941L506.438 393.941L505.969 393.761C505.198 394.057 504.835 393.674 504.094 393.377C504.133 394.228 504.035 394.289 503.548 394.94C502.978 395.019 502.517 395.143 501.959 394.953C501.493 394.794 501.199 394.772 500.707 394.746C500.131 394.717 499.866 394.688 499.302 394.5L498.872 393.315L497.812 393.191C497.517 392.837 497.216 392.559 496.873 392.252C496.356 392.252 496.594 392.229 496.009 392.347L495.562 392.441C495.494 391.379 496.057 390.467 495.814 389.462C495.622 388.666 495.56 387.969 495.509 387.153C494.85 386.82 494 386.66 493.287 386.447ZM491.601 381.26L492.929 381.25C493.324 382.202 493.78 382.957 493.37 383.953L492.778 385.312L493.287 386.447C494 386.66 494.85 386.82 495.509 387.153C495.499 386.33 495.433 385.856 495.855 385.115L496.138 384.701L495.637 383.891C496.666 383.346 496.377 383.113 497.006 382.235C497.549 381.478 498.182 381.805 498.562 380.706L498.209 380.062L498.673 379.238L498.432 378.653C496.198 379.376 493.659 380.127 491.601 381.26Z"/>
	<path fill="#EDBDA8" fill-opacity="0.62352943" transform="scale(0.666667 0.666667)" d="M491.601 381.26C493.659 380.127 496.198 379.376 498.432 378.653L498.673 379.238L498.209 380.062L498.562 380.706C498.182 381.805 497.549 381.478 497.006 382.235C496.377 383.113 496.666 383.346 495.637 383.891L496.138 384.701L495.855 385.115C495.433 385.856 495.499 386.33 495.509 387.153C494.85 386.82 494 386.66 493.287 386.447L492.778 385.312L493.37 383.953C493.78 382.957 493.324 382.202 492.929 381.25L491.601 381.26Z"/>
	<defs>
		<linearGradient id="gradient_0" gradientUnits="userSpaceOnUse" x1="493.87482" y1="396.37488" x2="495.81335" y2="393.27405">
			<stop offset="0" stop-color="#E8BAA2" stop-opacity="0.50588238"/>
			<stop offset="1" stop-color="#E8BAA0" stop-opacity="0.5529412"/>
		</linearGradient>
	</defs>
	<path fill="url(#gradient_0)" transform="scale(0.666667 0.666667)" d="M493.287 386.447C494 386.66 494.85 386.82 495.509 387.153C495.56 387.969 495.622 388.666 495.814 389.462C496.057 390.467 495.494 391.379 495.562 392.441L496.009 392.347C496.594 392.229 496.356 392.252 496.873 392.252C497.216 392.559 497.517 392.837 497.812 393.191L498.872 393.315L499.302 394.5C499.866 394.688 500.131 394.717 500.707 394.746C501.199 394.772 501.493 394.794 501.959 394.953C502.517 395.143 502.978 395.019 503.548 394.94C504.035 394.289 504.133 394.228 504.094 393.377C504.835 393.674 505.198 394.057 505.969 393.761L506.438 393.941L507.562 393.941C509.664 395.342 509.91 397.721 511.816 399L512.276 400.305L511.814 401.125L511.388 401.179L511.323 400.584L510.188 399.741L509.185 398.648C507.392 396.944 505.081 397.799 502.892 397.576C500.609 397.344 499.084 396.615 496.688 396.694L496.466 397.012C495.623 397.938 494.108 398.041 492.938 398.092L492.617 397.125C492.977 395.439 492.942 393.933 493.117 392.25C493.323 390.272 494.114 388.775 493.413 386.764L493.287 386.447Z"/>
	<path fill="#E6A672" fill-opacity="0.39215687" transform="scale(0.666667 0.666667)" d="M491.601 381.26L492.929 381.25C493.324 382.202 493.78 382.957 493.37 383.953L492.778 385.312L493.287 386.447L493.413 386.764C494.114 388.775 493.323 390.272 493.117 392.25C492.942 393.933 492.977 395.439 492.617 397.125L492.938 398.092C494.108 398.041 495.623 397.938 496.466 397.012L496.688 396.694C499.084 396.615 500.609 397.344 502.892 397.576C505.081 397.799 507.392 396.944 509.185 398.648L510.188 399.741L511.323 400.584L511.388 401.179C507.368 402.488 502.528 404.24 498.267 404.349L500.883 403.125C500.666 402.544 500.765 402.358 500.852 401.76C500.4 401.558 499.582 401.046 499.125 400.988C498.654 400.929 497.892 401.41 497.438 401.33C496.889 401.232 496.015 400.764 495.515 400.486C494.418 399.876 493.522 399.604 492.288 399.375L490.945 398.953L492.151 398.438C491.256 395.426 492.29 390.643 490.907 388.129C490.535 387.454 490.24 386.814 489.927 386.109C490.191 385.462 490.474 384.946 490.893 384.39L491.334 383.812C491.198 382.816 491.362 382.817 491.812 381.972L491.15 381.496L491.601 381.26Z"/>
	<path fill="#237D40" transform="scale(0.666667 0.666667)" d="M477.772 248.49L477.866 248.815L488.925 247.026C489.631 247.925 490.346 248.747 490.759 249.828L491.056 251.985C492.672 252.267 494.549 254.238 495.746 255.36L496.004 255.805L498.538 258.654C499.836 259.892 500.697 260.738 501.578 262.291L501.787 262.505L504.656 263.314C501.548 264.885 499.516 266.652 497.254 269.282C496.644 272.71 498.535 275.208 500.254 277.992C500.37 278.18 501.034 279.085 501.054 279.281C501.125 279.962 500.219 282.015 499.994 282.756L496.7 294.25C494.618 302.3 493.289 310.529 491.863 318.712C492.04 320.804 491.577 322.877 491.242 324.938L488.086 340.132L481.372 388.877C477.196 378.449 474.09 366.204 472.606 355.032L469.74 330.188C468.263 320.928 465.703 311.633 464.765 302.321C464.086 295.586 464.171 288.523 463.797 281.735C463.652 279.101 464.148 275.431 462.663 273.221C461.25 277.592 461.91 282.34 461.968 286.863C462.051 293.452 461.657 300.225 462.562 306.763C464.588 321.381 469.167 335.936 470.377 350.667L452.243 350.373L452.99 318.323C453.415 302.455 453.667 286.336 456.689 270.709C457.537 266.329 458.313 261.92 459.962 257.756C462.681 250.892 471.547 251.184 477.278 248.709L477.772 248.49ZM488.086 340.132L491.242 324.938C491.577 322.877 492.04 320.804 491.863 318.712C493.289 310.529 494.618 302.3 496.7 294.25L499.994 282.756C500.219 282.015 501.125 279.962 501.054 279.281C501.034 279.085 500.37 278.18 500.254 277.992C498.535 275.208 496.644 272.71 497.254 269.282C499.516 266.652 501.548 264.885 504.656 263.314L501.787 262.505L501.578 262.291C500.697 260.738 499.836 259.892 498.538 258.654L496.004 255.805L495.746 255.36C494.549 254.238 492.672 252.267 491.056 251.985L490.759 249.828L490.123 250.251L486.732 248.97C482.031 256.679 479.374 264.655 473.244 271.541C476.294 272.639 478.999 273.779 481.79 275.431L485.66 323.062L486.621 333.583C486.817 335.652 486.772 337.595 487.414 339.598L488.086 340.132Z"/>
	<path fill="#5B9E64" transform="scale(0.666667 0.666667)" d="M488.086 340.132L487.414 339.598C486.772 337.595 486.817 335.652 486.621 333.583L485.66 323.062L481.79 275.431C478.999 273.779 476.294 272.639 473.244 271.541C479.374 264.655 482.031 256.679 486.732 248.97L490.123 250.251L490.759 249.828L491.056 251.985C492.672 252.267 494.549 254.238 495.746 255.36L496.004 255.805L498.538 258.654C499.836 259.892 500.697 260.738 501.578 262.291L501.787 262.505L504.656 263.314C501.548 264.885 499.516 266.652 497.254 269.282C496.644 272.71 498.535 275.208 500.254 277.992C500.37 278.18 501.034 279.085 501.054 279.281C501.125 279.962 500.219 282.015 499.994 282.756L496.7 294.25C494.618 302.3 493.289 310.529 491.863 318.712C492.04 320.804 491.577 322.877 491.242 324.938L488.086 340.132ZM490.346 269.582C489.84 277.948 490.123 286.467 490.107 294.851L490.088 307.581C490.073 311.007 489.954 315.578 491.459 318.717L491.863 318.712C493.289 310.529 494.618 302.3 496.7 294.25L499.994 282.756C500.219 282.015 501.125 279.962 501.054 279.281C501.034 279.085 500.37 278.18 500.254 277.992C498.535 275.208 496.644 272.71 497.254 269.282L497.005 268.672C496.441 267.612 495.461 266.996 494.283 266.851C492.643 266.649 491.409 268.527 490.346 269.582ZM491.056 251.985C490.972 254.652 490.979 257.38 490.688 260.031C490.353 263.089 489.568 266.544 490.346 269.582C491.409 268.527 492.643 266.649 494.283 266.851C495.461 266.996 496.441 267.612 497.005 268.672L497.254 269.282C499.516 266.652 501.548 264.885 504.656 263.314L501.787 262.505L501.578 262.291C500.697 260.738 499.836 259.892 498.538 258.654L496.004 255.805L495.746 255.36C494.549 254.238 492.672 252.267 491.056 251.985Z"/>
	<path fill="#F8F9F0" transform="scale(0.666667 0.666667)" d="M491.056 251.985C492.672 252.267 494.549 254.238 495.746 255.36L496.004 255.805L498.538 258.654C499.836 259.892 500.697 260.738 501.578 262.291L501.787 262.505L504.656 263.314C501.548 264.885 499.516 266.652 497.254 269.282L497.005 268.672C496.441 267.612 495.461 266.996 494.283 266.851C492.643 266.649 491.409 268.527 490.346 269.582C489.568 266.544 490.353 263.089 490.688 260.031C490.979 257.38 490.972 254.652 491.056 251.985ZM496.004 255.805C495.326 256.729 494.792 257.386 494.636 258.562C495.122 259.939 495.04 260.04 496.367 260.82C497.543 260.337 497.899 259.681 498.538 258.654L496.004 255.805Z"/>
	<path fill="#F7F8F0" fill-opacity="0.88235295" transform="scale(0.666667 0.666667)" d="M496.004 255.805L498.538 258.654C497.899 259.681 497.543 260.337 496.367 260.82C495.04 260.04 495.122 259.939 494.636 258.562C494.792 257.386 495.326 256.729 496.004 255.805Z"/>
	<path fill="#237D40" transform="scale(0.666667 0.666667)" d="M525.508 408.927C533.065 407.958 540.564 405.452 547.84 403.25L576.154 394.368C582.228 392.382 588.151 390.115 594.455 388.953L597.116 397.25L601.648 413.301L602.961 417.907L615.358 452.213L615.828 458.132L666.309 458.369L670.195 458.298C668.117 464.433 666.82 471.083 665.184 477.371C664.83 478.735 664.636 480.985 663.938 482.15C663.918 482.183 663.242 482.549 663.197 482.567L662.467 482.796L661.878 482.178C660.902 481.215 660.1 480.981 658.745 480.907C655.756 480.745 652.605 481.473 649.562 481.505L605.624 482.813C601.106 482.287 596.227 484.115 591.701 484.779C586.896 485.484 581.984 485.772 577.126 485.695C565.858 485.516 553.82 482.457 545.301 474.745C535.741 466.09 530.057 453.245 524.023 442.041C522.155 438.573 520.046 432.986 517.216 430.32C516.454 429.603 515.682 429.252 514.66 429.051C512.45 428.616 510.173 428.944 507.935 428.958L494.994 429.003L495.289 414.5C495.382 411.751 495.676 408.866 495.362 406.132L495.32 405.807C496.238 404.975 497.118 404.715 498.267 404.349C502.528 404.24 507.368 402.488 511.388 401.179L511.814 401.125L513.891 400.313L516.838 399.231C518.072 402.847 519.941 406.633 520.86 410.295C522.363 409.585 523.873 409.177 525.508 408.927Z"/>
	<path fill="#000C50" transform="scale(0.666667 0.666667)" d="M601.648 413.301L602.961 417.907L560.385 422.638C559.246 422.671 557.812 422.7 556.939 421.875L557.13 421.378C559.686 420.251 562.979 419.941 565.729 419.55L578.249 417.673L601.648 413.301Z"/>
	<path fill="#000C50" transform="scale(0.666667 0.666667)" d="M525.508 408.927C533.065 407.958 540.564 405.452 547.84 403.25L576.154 394.368C582.228 392.382 588.151 390.115 594.455 388.953L597.116 397.25L578.963 404.288C560.512 410.51 541.027 414.907 521.669 417.058L520.86 410.295C522.363 409.585 523.873 409.177 525.508 408.927Z"/>
	<path fill="#005429" transform="scale(0.666667 0.666667)" d="M666.309 458.369L670.195 458.298C668.117 464.433 666.82 471.083 665.184 477.371C664.83 478.735 664.636 480.985 663.938 482.15C663.918 482.183 663.242 482.549 663.197 482.567L662.467 482.796L661.878 482.178C660.902 481.215 660.1 480.981 658.745 480.907C655.756 480.745 652.605 481.473 649.562 481.505L605.624 482.813C605.082 482.492 604.362 482.334 603.762 482.132L603.686 481.688C605.046 481.074 606.137 480.262 607.247 479.266C613.173 473.947 615.432 466.559 615.856 458.85L666.309 458.369Z"/>
	<path fill="#669B86" transform="scale(0.666667 0.666667)" d="M526.041 491.859C528.466 492.159 531.079 491.719 533.51 491.482C534.331 492.386 534.991 492.823 536.133 493.253C538.881 494.289 541.637 496.755 544.096 498.441C547.38 500.693 550.947 502.722 553.996 505.295C554.867 506.03 555.941 506.814 556.447 507.856L556.621 508.292C550.944 507.5 544.044 507.246 538.688 505.381C532.686 503.291 528.731 497.328 526.041 491.859Z"/>
	<path fill="#4E8878" transform="scale(0.666667 0.666667)" d="M519.219 643.987C524.83 637.766 527.979 631.115 529.312 622.837C530.237 617.1 530.472 611.987 533.806 606.988L534.139 607.205C536.202 608.524 541.169 610.065 541.604 612.59C541.802 613.74 541.55 615.097 541.2 616.197C540.005 619.949 537.89 623.39 536.39 627.019C534.122 632.509 533.022 639.492 529.276 644.212C528.337 645.394 526.564 647.011 525 647.213C523.767 647.372 522.726 647.09 521.623 646.575L521.078 646.341L520.768 647.156C520.518 647.025 520.98 645.874 519.219 643.987Z"/>
	<path fill="#669B86" transform="scale(0.666667 0.666667)" d="M519.219 643.987C520.98 645.874 520.518 647.025 520.768 647.156C520.485 661.644 516.664 675.596 513.509 689.673C512.167 695.66 510.635 701.807 510.221 707.93C509.448 711.84 506.188 716.668 504.287 720.15C502.911 714.697 501.562 709.601 501.115 703.956C501.692 702.031 501.312 698.971 501.324 696.923L501.359 678.722C501.37 671.951 502.281 664.487 501.357 657.819C501.42 657.224 504.212 655.479 504.774 655.09C509.828 651.594 514.588 648.04 519.219 643.987Z"/>
	<path fill="#5B9E64" transform="scale(0.666667 0.666667)" d="M533.51 491.482L573.35 489.471L573.474 512.25L573.444 554.274L572.969 568.537L572.695 667.919L572.548 690C572.408 693.002 571.526 695.984 571.569 699C571.585 700.041 571.834 701.1 572.1 702.099C571.896 702.853 570.954 704.058 570.528 704.762C568.011 702.01 565.585 699.743 562.526 697.587C561.322 696.631 560.751 696.005 560.277 694.53C561.211 693.124 561.033 691.685 561.081 690.023L561.097 661.126L561.332 613.956L562.186 511.109C560.399 509.97 558.555 509.142 556.621 508.292L556.447 507.856C555.941 506.814 554.867 506.03 553.996 505.295C550.947 502.722 547.38 500.693 544.096 498.441C541.637 496.755 538.881 494.289 536.133 493.253C534.991 492.823 534.331 492.386 533.51 491.482Z"/>
	<defs>
		<linearGradient id="gradient_1" gradientUnits="userSpaceOnUse" x1="743.21826" y1="469.73282" x2="117.11301" y2="452.29407">
			<stop offset="0" stop-color="#005D2F"/>
			<stop offset="1" stop-color="#000163"/>
		</linearGradient>
	</defs>
	<path fill="url(#gradient_1)" transform="scale(0.666667 0.666667)" d="M277.252 179.849C283.737 188.066 290.237 194.418 300.384 197.848C304.546 199.315 308.561 201.747 312.571 203.639L324.375 209.225C326.28 210.138 328.62 210.943 330.255 212.247C333.679 223.151 353.077 305.489 350.211 310.873C349.917 311.426 349.587 311.881 349.206 312.375C348.701 324.477 350.459 338.185 340.688 347.341C334.152 353.465 324.717 353.596 316.315 354.306L329.081 412.914L333.027 430.875C334.282 436.274 336.191 442.481 336.188 447.993C335.473 448.664 334.922 448.758 333.938 448.755L330.686 448.356L331.692 697.182C335.921 701.052 339.723 705.477 344.004 709.23C347.363 712.174 351.233 714.652 355.193 716.703C356.305 717.137 357.397 717.644 358.597 717.739C361.53 717.972 362.655 721.691 364.865 722.985C365.053 723.095 366.538 722.999 366.81 723.002L374.227 723.101L436.104 723.664L447.394 723.636C449.124 723.631 451.391 723.871 453.039 723.408C455.003 722.927 457.505 723.162 459.562 722.93L459.954 722.205C460.216 721.605 460.246 721.356 460.719 720.846L461.08 720.486L461.812 722.929C465.086 723.425 467.955 722.634 471.188 722.53C473.162 722.466 481.432 723.399 482.812 722.315C483.057 722.124 483.153 721.963 483.327 721.726C489.034 715.258 493.778 708.762 501.115 703.956C501.562 709.601 502.911 714.697 504.287 720.15C506.188 716.668 509.448 711.84 510.221 707.93C518.323 705.531 526.116 703.092 534.423 701.376C540.947 700.029 547.911 699.461 554.262 697.534C556.267 696.925 557.777 695.508 559.689 694.753L560.277 694.53C560.751 696.005 561.322 696.631 562.526 697.587C565.585 699.743 568.011 702.01 570.528 704.762C570.954 704.058 571.896 702.853 572.1 702.099C575.063 698.425 578.27 694.472 580.129 690.096C582.006 685.677 582.81 680.977 583.812 676.312L587.013 661.545L594.777 632.458C596.332 626.664 597.488 620.565 599.247 614.86C600.39 611.156 603.087 608.385 604.511 604.853L608.555 593.576L620.845 562.811C623.042 557.293 624.686 551.416 627.56 546.196C628.493 544.501 629.638 542.807 631.312 541.767C632.647 540.938 634.376 540.602 635.906 540.958C641.687 542.304 644.323 548.796 647.227 553.327L679.954 495.938C683.804 490.013 688.308 484.116 693.308 479.121C696.584 475.848 700.283 472.631 704.969 471.742L705.562 471.639C706.924 471.394 707.983 471.467 709.337 471.803C714.341 473.049 718.547 477.601 721.09 481.943C722.98 485.171 723.902 488.928 724.636 492.562C726.796 503.26 726.834 514.43 724.176 525.043C722.95 529.936 720.757 534.572 719.399 539.45C724.125 538.316 729.82 536.179 734.613 537.975C737.078 538.899 739.074 540.756 740.155 543.162L740.371 543.669C741.023 545.169 741.415 546.571 741.731 548.176C742.943 552.581 741.906 557.525 741.121 561.929C733.323 596.469 718.736 627.447 700.261 657.5C691.163 672.298 681.057 687.035 669.651 700.157C662.195 708.733 654.076 716.133 645.745 723.8L678.894 723.47L717.227 723.412L728.821 723.346C732.012 723.281 735.748 722.854 738.756 724.044C739.422 724.761 739.881 725.326 739.834 726.375C739.803 727.095 739.56 727.979 738.957 728.379C737.538 729.32 722.838 728.874 720.28 728.836L109.335 728.697C109.202 727.647 108.962 726.545 109.178 725.497C109.326 724.781 110.419 724.381 111.027 724.009C115.195 724.039 120.478 723.428 124.494 724.276L124.686 724.411C129.529 724.911 134.202 724.547 139.05 724.529L165.433 724.523L176.425 724.645C177.137 724.626 178.873 724.752 179.498 724.514C179.981 724.329 180.974 723.305 181.393 722.947C182.968 721.601 184.547 720.161 186.245 718.975C191.42 715.361 199.461 713.573 205.594 712.146C204.996 707.704 204.459 703.68 202.721 699.508L200.003 679.278L198.716 661.755L198.168 614.993L197.956 559.055L196.439 439.469L176.174 435.128C177.822 422.318 181.136 409.854 184.192 397.326L190.508 371.438C193.259 361.581 196.677 351.829 198.677 341.783C194.035 341.169 189.185 341.133 184.5 340.85C182.363 340.722 180.019 340.736 177.948 340.148C174.209 339.087 170.964 335.387 169.147 332.062C165.279 324.989 165.909 313.08 166.935 305.208C168.557 292.76 172.371 280.18 175.773 268.125L181.903 245.899L192.47 212.062C192.764 211.116 193.199 209.197 193.744 208.418C195.035 206.576 205.802 202.796 208.255 201.835C220.604 196.998 232.502 191.685 244.264 185.571L267.85 292.157L268.195 292.313L268.616 292.152C270.167 283.849 269.82 275.083 270.525 266.66C271.802 251.403 274.193 236.525 277.742 221.633L273.786 215.259C274.356 213.579 274.992 211.864 275.904 210.335C277.129 208.281 278.155 207.018 280.476 206.482C280.128 206.098 279.88 205.614 279.607 205.173C280.2 204.967 281.017 204.835 281.413 204.368L281.928 203.804L282.073 204.606L282.741 204.801C283.565 205.055 283.619 205.357 284.229 205.875C284.408 206.027 284.777 206.184 285 206.287C285.756 206.071 285.815 206.041 286.399 205.439L286.48 204.635C286.502 203.286 286.337 201.854 285.444 200.856C285.365 199.844 286.067 198.987 286.539 198.098C283.611 196.054 280.284 194.008 278.196 191.041C275.858 187.717 276.591 183.596 277.252 179.849ZM250.114 587.75C249.401 591.478 249.518 595.079 249.246 598.83C249.064 601.329 248.509 605.56 249.288 607.907L246.112 701.89C254.109 710.29 268.275 718.535 280.085 718.916L287.813 707.265C289.451 697.863 288.464 688.043 287.973 678.562L286.884 660.758L286.493 649.688L285.394 639.086C285.837 636.119 285.192 633.146 285.027 630.188C284.921 628.282 285.056 626.367 284.824 624.469C284.47 621.56 284.516 618.839 283.785 615.954L250.114 587.75ZM250.114 587.75L283.785 615.954L263.707 484.367C262.728 486.248 262.523 489.074 262.248 491.17L260.776 503.473L256.083 540.874L252.614 567.638L250.114 587.75ZM279.607 205.173C279.88 205.614 280.128 206.098 280.476 206.482C278.155 207.018 277.129 208.281 275.904 210.335C274.992 211.864 274.356 213.579 273.786 215.259L277.742 221.633C274.193 236.525 271.802 251.403 270.525 266.66C269.82 275.083 270.167 283.849 268.616 292.152L268.195 292.313L267.85 292.157L268.001 293.372C269.615 294.248 274.479 293.615 276.346 293.274C276.678 292.734 278.812 292.312 279.535 292.105C281.361 291.581 283.292 291.009 284.802 289.802C286.558 288.397 286.852 285.569 288.707 284.243C289.257 283.85 289.668 284.123 290.279 284.243C290.975 282.385 290.715 279.423 290.799 277.434C290.983 273.088 291.388 268.781 291.25 264.429L290.286 235.31C289.976 229.788 289.188 224.332 289.582 218.784C289.701 217.683 289.809 216.644 289.735 215.534C288.963 215.426 288.64 214.148 288.294 213.524C287.219 211.585 285.215 209.886 283.842 208.097C285.137 207.31 285.831 206.89 286.399 205.439C285.815 206.041 285.756 206.071 285 206.287C284.777 206.184 284.408 206.027 284.229 205.875C283.619 205.357 283.565 205.055 282.741 204.801L282.073 204.606L281.928 203.804L281.413 204.368C281.017 204.835 280.2 204.967 279.607 205.173ZM294.821 321.191C295.832 321.212 296.836 321.282 297.827 321.054C299.834 320.591 304.524 321.05 305.83 319.826C306.782 318.932 308.485 317.887 309.766 317.532L310.125 317.441C310.702 317.213 311.123 316.922 311.743 316.782L312.188 316.691C313.229 316.361 313.945 316.461 315 316.316C318.607 315.822 322.72 315.823 326.361 316.185C327.205 316.233 328.25 316.419 329.024 316.029C331.052 315.006 332.332 309.614 332.844 307.558C330.455 307.563 327.56 307.806 325.267 307.123L318.385 305.328C317.031 305.015 315.273 304.783 314.062 304.119C313.173 303.631 312.973 303.192 312.756 302.25C316.354 298.446 323.497 302.779 327.679 300.981L328.184 300.742C329.267 300.052 329.475 299.458 329.89 298.312C329.733 297.189 329.82 296.187 329.062 295.316C327.64 294.996 326.106 295.242 324.663 295.351C320.437 294.665 315.724 296.678 311.532 296.046L295.644 294.383C294.786 293.522 294.514 292.009 294.146 290.846C293.212 291.495 292.479 292.072 291.75 292.949C290.089 291.984 290.527 289.663 288.188 289.207L288.48 289.598C295.035 298.447 292.677 310.944 294.821 321.191ZM276.346 293.274L279.356 324.828C283.932 324.481 289.648 323.496 294.151 324.189C294.994 322.906 294.876 322.67 294.821 321.191C292.677 310.944 295.035 298.447 288.48 289.598L288.188 289.207C290.527 289.663 290.089 291.984 291.75 292.949C292.479 292.072 293.212 291.495 294.146 290.846C293.334 287.676 292.856 286.438 290.279 284.243C289.668 284.123 289.257 283.85 288.707 284.243C286.852 285.569 286.558 288.397 284.802 289.802C283.292 291.009 281.361 291.581 279.535 292.105C278.812 292.312 276.678 292.734 276.346 293.274ZM294.821 321.191C294.876 322.67 294.994 322.906 294.151 324.189L294.431 324.496C298.698 323.71 302.861 324.337 307.117 323.954C309.838 323.709 312.171 322.068 314.805 321.703C317.422 321.341 320.541 321.985 323.039 321.152C325.017 320.492 327.009 319.326 328.003 317.438C326.359 316.517 324.341 316.737 322.5 316.714L322.5 316.498C323.838 316.57 325.04 316.396 326.361 316.185C322.72 315.823 318.607 315.822 315 316.316C313.945 316.461 313.229 316.361 312.188 316.691L311.743 316.782C311.123 316.922 310.702 317.213 310.125 317.441L309.766 317.532C308.485 317.887 306.782 318.932 305.83 319.826C304.524 321.05 299.834 320.591 297.827 321.054C296.836 321.282 295.832 321.212 294.821 321.191ZM286.539 198.098C286.067 198.987 285.365 199.844 285.444 200.856C286.337 201.854 286.502 203.286 286.48 204.635L286.399 205.439C285.831 206.89 285.137 207.31 283.842 208.097C285.215 209.886 287.219 211.585 288.294 213.524C288.64 214.148 288.963 215.426 289.735 215.534L290.088 213.289C290.586 209.124 291.053 204.86 290.994 200.665C290.979 199.6 291.158 198.31 290.465 197.438C288.891 197.248 287.985 197.471 286.539 198.098Z"/>
	<path fill="#000C50" transform="scale(0.666667 0.666667)" d="M306.791 378.042C310.41 377.914 314.485 377.838 317.975 378.865L318.251 379.688C314.946 380.607 309.902 379.332 306.791 378.042Z"/>
	<path fill="#000C50" transform="scale(0.666667 0.666667)" d="M233.032 201.938L233.416 202.029C234.655 203.606 236.002 204.966 237.638 206.133C240.008 207.825 243.033 209.268 244.365 211.949C244.365 213.538 243.955 214.018 243.188 215.379L242.812 215.562L242.284 215.003L243.458 212.438C242.318 210.08 236.981 208.831 234.965 206.786C233.633 205.435 233.047 203.802 233.032 201.938Z"/>
	<path fill="#000C50" transform="scale(0.666667 0.666667)" d="M285.941 353.438C288.07 352.857 291.029 353.205 293.269 353.215L306.315 353.285C308.323 353.295 311.176 352.95 313.015 353.757L312.562 354.355C310.135 354.969 307.263 354.742 304.77 354.754C298.534 354.782 292.517 354.564 286.312 353.957L285.941 353.438Z"/>
	<path fill="#005429" transform="scale(0.666667 0.666667)" d="M741.121 561.929C740.789 561.862 739.646 561.51 739.386 561.581C738.944 561.7 738.92 562.079 738.281 562.194C737.953 561.524 737.738 561.047 737.649 560.292L737.607 559.731C736.928 560.193 737.175 559.951 736.642 560.636L736.263 561.141C736.166 560.271 736.054 559.487 736.293 558.626C736.759 556.945 737.13 555.7 737.206 553.945C737.237 553.225 737.17 552.94 737.547 552.319C737.563 553.427 737.448 554.621 737.915 555.647L739.438 555.665C739.679 556.445 739.853 557.082 740.332 557.755C741.628 555.787 740.392 552.692 741 550.401L741.188 549.75C741.301 549.13 741.453 548.765 741.731 548.176C742.943 552.581 741.906 557.525 741.121 561.929Z"/>
	<path fill="#005429" transform="scale(0.666667 0.666667)" d="M287.813 707.265C290.014 711.939 290.77 715.529 289.362 720.561C286.338 719.748 283.238 718.886 280.085 718.916L287.813 707.265Z"/>
	<path fill="#005429" transform="scale(0.666667 0.666667)" d="M678.894 723.47L717.227 723.412L728.821 723.346C732.012 723.281 735.748 722.854 738.756 724.044C739.422 724.761 739.881 725.326 739.834 726.375C739.803 727.095 739.56 727.979 738.957 728.379C737.538 729.32 722.838 728.874 720.28 728.836L720.069 728.52L710.252 728.447L710.438 728.066L726.182 728.054L725.268 727.651L725.763 725.539C725.448 724.857 725.413 724.787 724.761 724.331L724.213 724.859L724.729 725.035L724.497 725.769C723.712 725.789 722.968 725.819 722.192 725.949L721.551 726.061C720.996 725.271 721.295 725.634 720.661 724.966L720.54 725.815L719.952 725.164L718.993 725.401L719.048 724.333L693.252 724.284L682.633 723.995C681.554 723.955 679.626 724.215 678.894 723.47Z"/>
	<path fill="#EDBDA8" fill-opacity="0.80784315" transform="scale(0.666667 0.666667)" d="M294.821 321.191C295.832 321.212 296.836 321.282 297.827 321.054C299.834 320.591 304.524 321.05 305.83 319.826C306.782 318.932 308.485 317.887 309.766 317.532L310.125 317.441C310.702 317.213 311.123 316.922 311.743 316.782L312.188 316.691C313.229 316.361 313.945 316.461 315 316.316C318.607 315.822 322.72 315.823 326.361 316.185C325.04 316.396 323.838 316.57 322.5 316.498L322.5 316.714C324.341 316.737 326.359 316.517 328.003 317.438C327.009 319.326 325.017 320.492 323.039 321.152C320.541 321.985 317.422 321.341 314.805 321.703C312.171 322.068 309.838 323.709 307.117 323.954C302.861 324.337 298.698 323.71 294.431 324.496L294.151 324.189C294.994 322.906 294.876 322.67 294.821 321.191Z"/>
	<path fill="#000C50" transform="scale(0.666667 0.666667)" d="M303.986 716.367C309.592 715.773 316.102 716.083 321.16 718.809L321.775 719.144C324.002 720.322 325.741 722.083 327.58 723.78L313.219 723.916L298.73 723.96C296.086 723.941 293.222 724.137 290.625 723.697L290.296 723C290.53 722.327 290.742 721.682 291.194 721.118C293.827 717.835 299.992 716.952 303.986 716.367Z"/>
	<defs>
		<linearGradient id="gradient_2" gradientUnits="userSpaceOnUse" x1="329.86209" y1="311.48389" x2="290.39716" y2="305.95239">
			<stop offset="0" stop-color="#E9BAA1" stop-opacity="0.87843138"/>
			<stop offset="1" stop-color="#EABBA2"/>
		</linearGradient>
	</defs>
	<path fill="url(#gradient_2)" transform="scale(0.666667 0.666667)" d="M294.821 321.191C292.677 310.944 295.035 298.447 288.48 289.598L288.188 289.207C290.527 289.663 290.089 291.984 291.75 292.949C292.479 292.072 293.212 291.495 294.146 290.846C294.514 292.009 294.786 293.522 295.644 294.383L311.532 296.046C315.724 296.678 320.437 294.665 324.663 295.351C326.106 295.242 327.64 294.996 329.062 295.316C329.82 296.187 329.733 297.189 329.89 298.312C329.475 299.458 329.267 300.052 328.184 300.742L327.679 300.981C323.497 302.779 316.354 298.446 312.756 302.25C312.973 303.192 313.173 303.631 314.062 304.119C315.273 304.783 317.031 305.015 318.385 305.328L325.267 307.123C327.56 307.806 330.455 307.563 332.844 307.558C332.332 309.614 331.052 315.006 329.024 316.029C328.25 316.419 327.205 316.233 326.361 316.185C322.72 315.823 318.607 315.822 315 316.316C313.945 316.461 313.229 316.361 312.188 316.691L311.743 316.782C311.123 316.922 310.702 317.213 310.125 317.441L309.766 317.532C308.485 317.887 306.782 318.932 305.83 319.826C304.524 321.05 299.834 320.591 297.827 321.054C296.836 321.282 295.832 321.212 294.821 321.191ZM324.663 295.351L323.589 295.688L323.812 296.581C322.919 297.118 321.512 297.545 321.117 298.5C322.885 299.761 325.155 299.008 327.199 300.265L328.184 300.742C329.267 300.052 329.475 299.458 329.89 298.312C329.733 297.189 329.82 296.187 329.062 295.316C327.64 294.996 326.106 295.242 324.663 295.351Z"/>
	<path fill="#005429" transform="scale(0.666667 0.666667)" d="M510.221 707.93C518.323 705.531 526.116 703.092 534.423 701.376C540.947 700.029 547.911 699.461 554.262 697.534C556.267 696.925 557.777 695.508 559.689 694.753L560.277 694.53C560.751 696.005 561.322 696.631 562.526 697.587C558.446 706.961 546.347 713.884 537.168 717.485C523.5 722.849 510.43 722.243 496.091 722.248C492.182 722.249 487.025 722.847 483.327 721.726C489.034 715.258 493.778 708.762 501.115 703.956C501.562 709.601 502.911 714.697 504.287 720.15C506.188 716.668 509.448 711.84 510.221 707.93Z"/>
	<path fill="#237D40" transform="scale(0.666667 0.666667)" d="M279.607 205.173C280.2 204.967 281.017 204.835 281.413 204.368L281.928 203.804L282.073 204.606L282.741 204.801C283.565 205.055 283.619 205.357 284.229 205.875C284.408 206.027 284.777 206.184 285 206.287C285.756 206.071 285.815 206.041 286.399 205.439C285.831 206.89 285.137 207.31 283.842 208.097C285.215 209.886 287.219 211.585 288.294 213.524C288.64 214.148 288.963 215.426 289.735 215.534C289.809 216.644 289.701 217.683 289.582 218.784C289.188 224.332 289.976 229.788 290.286 235.31L291.25 264.429C291.388 268.781 290.983 273.088 290.799 277.434C290.715 279.423 290.975 282.385 290.279 284.243C289.668 284.123 289.257 283.85 288.707 284.243C286.852 285.569 286.558 288.397 284.802 289.802C283.292 291.009 281.361 291.581 279.535 292.105C278.812 292.312 276.678 292.734 276.346 293.274C274.479 293.615 269.615 294.248 268.001 293.372L267.85 292.157L268.195 292.313L268.616 292.152C270.167 283.849 269.82 275.083 270.525 266.66C271.802 251.403 274.193 236.525 277.742 221.633L273.786 215.259C274.356 213.579 274.992 211.864 275.904 210.335C277.129 208.281 278.155 207.018 280.476 206.482C280.128 206.098 279.88 205.614 279.607 205.173ZM291.25 264.429L290.286 235.31C289.976 229.788 289.188 224.332 289.582 218.784L288.75 218.022C286.922 219.062 285.591 221.066 284.486 222.805C284.8 224.871 284.982 226.915 285.938 228.799L286.715 228.562C287.371 229.388 287.417 229.576 287.575 230.625C287.261 230.992 286.307 231.363 286.277 231.402C286.109 231.629 286.263 234.199 286.295 234.641L290.816 264.688L291.25 264.429Z"/>
	<path fill="#005429" transform="scale(0.666667 0.666667)" d="M250.114 587.75L283.785 615.954C284.516 618.839 284.47 621.56 284.824 624.469C285.056 626.367 284.921 628.282 285.027 630.188C285.192 633.146 285.837 636.119 285.394 639.086C282.227 637.739 278.913 634.618 276.188 632.46C266.721 624.963 256.989 617.269 249.288 607.907C248.509 605.56 249.064 601.329 249.246 598.83C249.518 595.079 249.401 591.478 250.114 587.75Z"/>
</svg>
