<?xml version="1.0" encoding="utf-8" ?>
<svg xmlns="http://www.w3.org/2000/svg" xmlns:xlink="http://www.w3.org/1999/xlink" width="512" height="512">
	<path fill="#006E24" transform="scale(0.666667 0.666667)" d="M214.009 270.003L213.93 218.858L482.403 167.022C489.096 166.108 496.971 165.715 503.531 167.407C517.382 170.981 523.978 182.938 527.302 195.794L527.978 198.61C528.039 198.891 527.915 199.291 528.152 199.454C528.355 199.594 529.437 199.613 529.763 199.659C531.25 199.87 532.754 200.164 534.188 200.617C536.967 201.496 539.458 202.907 541.761 204.679C547.649 209.209 548.887 214.004 549.793 221.036L549.595 220.994C548.111 220.734 547.377 220.533 546.264 219.484C544.216 217.554 542.204 215.818 539.606 214.671C536.915 213.484 534.404 213.14 532.078 211.151C525.163 205.234 519.607 200.006 510.417 197.829C509.643 197.59 508.922 197.423 508.123 197.292L507.563 197.194C504.017 196.728 499.031 196.805 495.562 197.441C493.828 197.76 492.182 197.515 490.446 198.051C489.245 198.422 487.648 198.459 486.375 198.672L485.306 198.778C482.587 199.052 479.633 199.499 477 200.119C475.385 200.5 473.505 200.463 471.839 200.746L452.417 203.665L434.668 206.263C431.676 206.694 428.479 206.835 425.55 207.549C422.773 208.226 419.556 208.472 416.707 208.848L399.683 210.974L326.71 219.905L307.875 222.343C305.156 222.71 302.242 222.862 299.576 223.495C301.583 223.701 303.408 223.872 305.366 223.241L304.916 224.378L305.839 224.543C305.696 225.167 305.504 225.715 305.26 226.306C305.484 228.113 304.742 228.971 303.638 230.366L302.372 231.742L302.319 232.585C300.938 233.112 300.612 233.295 299.751 234.601C299.425 235.096 299.069 235.254 298.562 235.525C298.269 236.299 298.363 236.369 297.655 236.862C297.081 237.261 296.792 237.658 296.383 238.219C295.67 239.196 294.655 239.949 293.966 240.938C293.031 242.278 292.747 242.929 291.518 244.021L290.945 244.815L290.579 245.123C290.124 245.525 290.08 245.788 289.833 246.318C289.427 247.193 288.699 247.734 287.998 248.359C287.476 248.823 287.275 249.366 286.881 249.925L285.944 251.068C284.773 252.579 283.828 254.102 282.453 255.395L281.742 256.389C281.093 257.341 280.424 258.199 279.995 259.279C279.696 260.034 279.364 260.348 278.927 260.993L278.583 261.693L278.112 262.32L278.421 263.808L277.933 264.372C277.354 265.061 277.245 265.603 276.946 266.432C276.728 267.038 276.715 266.898 276.14 267.344C275.334 267.969 274.895 268.681 274.379 269.546L262.327 269.637C260.485 269.609 258.517 268.982 256.816 269.837L255.363 270.149L234.285 270.284C231.625 269.868 228.842 270.029 226.156 270.021L214.009 270.003Z"/>
	<path fill="#37B85B" transform="scale(0.666667 0.666667)" d="M299.576 223.495C301.583 223.701 303.408 223.872 305.366 223.241L304.916 224.378L305.839 224.543C305.696 225.167 305.504 225.715 305.26 226.306C305.484 228.113 304.742 228.971 303.638 230.366L302.372 231.742L302.319 232.585C300.938 233.112 300.612 233.295 299.751 234.601C299.425 235.096 299.069 235.254 298.562 235.525C298.269 236.299 298.363 236.369 297.655 236.862C297.081 237.261 296.792 237.658 296.383 238.219C295.67 239.196 294.655 239.949 293.966 240.938C293.031 242.278 292.747 242.929 291.518 244.021L290.945 244.815L290.579 245.123C290.124 245.525 290.08 245.788 289.833 246.318C289.427 247.193 288.699 247.734 287.998 248.359C287.476 248.823 287.275 249.366 286.881 249.925L285.944 251.068C284.773 252.579 283.828 254.102 282.453 255.395L281.742 256.389C281.093 257.341 280.424 258.199 279.995 259.279C279.696 260.034 279.364 260.348 278.927 260.993L278.583 261.693L278.112 262.32L278.421 263.808L277.933 264.372C277.354 265.061 277.245 265.603 276.946 266.432C276.728 267.038 276.715 266.898 276.14 267.344C275.334 267.969 274.895 268.681 274.379 269.546L262.327 269.637C260.485 269.609 258.517 268.982 256.816 269.837L255.363 270.149L234.285 270.284L234.204 259.979C233.979 253.229 233.017 245.198 237.7 239.625C244.997 230.941 258.855 228.725 269.493 227.302L282.188 225.627L299.576 223.495Z"/>
	<defs>
		<linearGradient id="gradient_0" gradientUnits="userSpaceOnUse" x1="471.4104" y1="291.33569" x2="332.01413" y2="187.45671">
			<stop offset="0" stop-color="#007B22"/>
			<stop offset="1" stop-color="#32B355"/>
		</linearGradient>
	</defs>
	<path fill="url(#gradient_0)" transform="scale(0.666667 0.666667)" d="M299.576 223.495C302.242 222.862 305.156 222.71 307.875 222.343L326.71 219.905L399.683 210.974L416.707 208.848C419.556 208.472 422.773 208.226 425.55 207.549C428.479 206.835 431.676 206.694 434.668 206.263L452.417 203.665L471.839 200.746C473.505 200.463 475.385 200.5 477 200.119C479.633 199.499 482.587 199.052 485.306 198.778L486.375 198.672C487.648 198.459 489.245 198.422 490.446 198.051C492.182 197.515 493.828 197.76 495.562 197.441C499.031 196.805 504.017 196.728 507.563 197.194L508.123 197.292C508.922 197.423 509.643 197.59 510.417 197.829C519.607 200.006 525.163 205.234 532.078 211.151C534.404 213.14 536.915 213.484 539.606 214.671C542.204 215.818 544.216 217.554 546.264 219.484C547.377 220.533 548.111 220.734 549.595 220.994L549.793 221.036L549.845 271.498L382.133 270.412L357.373 270.624L255.363 270.149L256.816 269.837C258.517 268.982 260.485 269.609 262.327 269.637L274.379 269.546C274.895 268.681 275.334 267.969 276.14 267.344C276.715 266.898 276.728 267.038 276.946 266.432C277.245 265.603 277.354 265.061 277.933 264.372L278.421 263.808L278.112 262.32L278.583 261.693L278.927 260.993C279.364 260.348 279.696 260.034 279.995 259.279C280.424 258.199 281.093 257.341 281.742 256.389L282.453 255.395C283.828 254.102 284.773 252.579 285.944 251.068L286.881 249.925C287.275 249.366 287.476 248.823 287.998 248.359C288.699 247.734 289.427 247.193 289.833 246.318C290.08 245.788 290.124 245.525 290.579 245.123L290.945 244.815L291.518 244.021C292.747 242.929 293.031 242.278 293.966 240.938C294.655 239.949 295.67 239.196 296.383 238.219C296.792 237.658 297.081 237.261 297.655 236.862C298.363 236.369 298.269 236.299 298.562 235.525C299.069 235.254 299.425 235.096 299.751 234.601C300.612 233.295 300.938 233.112 302.319 232.585L302.372 231.742L303.638 230.366C304.742 228.971 305.484 228.113 305.26 226.306C305.504 225.715 305.696 225.167 305.839 224.543L304.916 224.378L305.366 223.241C303.408 223.872 301.583 223.701 299.576 223.495Z"/>
	<path fill="#50CE68" transform="scale(0.666667 0.666667)" d="M357.373 270.624C359.758 269.529 361.918 266.624 363.761 264.745L373.528 255.279C377.404 251.831 381.639 248.761 385.831 245.713L386.356 246.118C386.92 246.526 387.077 246.641 387.734 246.674C388.595 247.548 388.736 248.289 388.718 249.473L388.704 250.089C388.67 252.695 389.158 254.552 388.644 257.268C388.486 258.103 388.687 259.088 388.89 259.89C389.096 260.699 388.897 261.054 388.72 261.829C388.597 262.366 388.653 262.72 388.678 263.259C388.769 265.188 387.343 266.658 387.004 268.5C385.799 269.465 385.164 269.692 383.625 269.816L382.314 269.965L382.133 270.412L357.373 270.624Z"/>
	<defs>
		<linearGradient id="gradient_1" gradientUnits="userSpaceOnUse" x1="549.86169" y1="244.53645" x2="386.14377" y2="239.07654">
			<stop offset="0" stop-color="#119037"/>
			<stop offset="1" stop-color="#48CE64"/>
		</linearGradient>
	</defs>
	<path fill="url(#gradient_1)" transform="scale(0.666667 0.666667)" d="M510.417 197.829C519.607 200.006 525.163 205.234 532.078 211.151C534.404 213.14 536.915 213.484 539.606 214.671C542.204 215.818 544.216 217.554 546.264 219.484C547.377 220.533 548.111 220.734 549.595 220.994L549.793 221.036L549.845 271.498L382.133 270.412L382.314 269.965L383.625 269.816C385.164 269.692 385.799 269.465 387.004 268.5C387.343 266.658 388.769 265.188 388.678 263.259C388.653 262.72 388.597 262.366 388.72 261.829C388.897 261.054 389.096 260.699 388.89 259.89C388.687 259.088 388.486 258.103 388.644 257.268C389.158 254.552 388.67 252.695 388.704 250.089L388.718 249.473C388.736 248.289 388.595 247.548 387.734 246.674C387.077 246.641 386.92 246.526 386.356 246.118L385.831 245.713C390.976 242.24 395.784 239.22 401.465 236.669C411.728 232.059 422.88 229.216 433.823 226.733C455.552 221.802 477.554 219.049 499.563 215.774L512.062 214.237C514.461 214.026 517.322 214.299 519.622 213.694C523.684 212.625 528.494 212.948 532.682 212.947C526.79 206.833 519.735 201.02 511.384 198.812L510.798 198.661L510.417 197.829Z"/>
	<path fill="#374650" transform="scale(0.666667 0.666667)" d="M214.009 270.003L226.156 270.021C228.842 270.029 231.625 269.868 234.285 270.284L255.363 270.149L357.373 270.624L382.133 270.412L549.845 271.498C552.343 271.106 554.988 271.286 557.518 271.138C562.124 270.87 566.703 270.336 571.312 270.749C577.865 271.334 583.293 273.377 588.494 277.447C595.062 282.587 600.097 289.864 601.047 298.29C601.582 303.036 601.371 308.019 601.381 312.795L601.389 336.134L601.116 409.846L600.769 422.672L600.779 492.388L600.633 518.391C600.531 521.761 600.622 525.344 600.176 528.679C599.282 535.357 596.143 542.205 591.967 547.47C586.047 554.935 577.308 561.213 567.635 562.21C561.551 562.837 555.331 562.387 549.23 562.306L522.4 562.27L384.226 562.09L273.671 562.097L235.722 562.094C227.877 562.099 219.702 562.594 211.922 561.645C201.857 560.416 193.834 556.673 185.963 550.316C176.832 542.94 169.26 532.174 168.091 520.22C167.591 515.109 167.737 509.939 167.73 504.808L167.724 482.711L168.002 405.176L167.984 331.662L167.985 308.582C167.988 304.561 167.731 300.324 168.164 296.329C168.785 290.59 171.003 285 174.732 280.561C186.151 266.967 197.992 271.417 213.415 270.058L214.009 270.003ZM364.02 346.532C360.764 347.602 356.636 348.518 353.834 350.462L349.391 352.537C332.001 361.99 318.575 378.954 312.998 397.872C307.556 416.33 310.264 436.483 319.565 453.162C329.073 470.212 345.506 484.922 364.514 490.215C383.181 495.414 404.774 492.322 421.533 482.737C438.674 472.934 450.208 454.64 455.212 435.865C457.502 427.271 458.565 418.004 457.606 409.125C456.328 397.28 452.152 387.194 445.589 377.355C444.977 376.008 443.769 374.696 442.865 373.523C440.803 370.846 438.666 368.25 436.236 365.899C431.313 360.471 424.457 355.487 417.872 352.314C417.287 351.501 413.813 350.211 412.767 349.712C406.013 346.288 397.558 344.239 390.021 343.808C381.383 342.511 372.398 344.599 364.02 346.532Z"/>
	<defs>
		<linearGradient id="gradient_2" gradientUnits="userSpaceOnUse" x1="383.10013" y1="491.68512" x2="384.51764" y2="344.93979">
			<stop offset="0" stop-color="white" stop-opacity="0"/>
			<stop offset="1" stop-color="white" stop-opacity="0.10980392"/>
		</linearGradient>
	</defs>
	<path fill="url(#gradient_2)" transform="scale(0.666667 0.666667)" d="M364.02 346.532C372.398 344.599 381.383 342.511 390.021 343.808C397.558 344.239 406.013 346.288 412.767 349.712C413.813 350.211 417.287 351.501 417.872 352.314C424.457 355.487 431.313 360.471 436.236 365.899C438.666 368.25 440.803 370.846 442.865 373.523C443.769 374.696 444.977 376.008 445.589 377.355C452.152 387.194 456.328 397.28 457.606 409.125C458.565 418.004 457.502 427.271 455.212 435.865C450.208 454.64 438.674 472.934 421.533 482.737C404.774 492.322 383.181 495.414 364.514 490.215C345.506 484.922 329.073 470.212 319.565 453.162C310.264 436.483 307.556 416.33 312.998 397.872C318.575 378.954 332.001 361.99 349.391 352.537L353.834 350.462C356.636 348.518 360.764 347.602 364.02 346.532ZM437.041 381.847C434.984 379.649 433.361 376.868 431.337 374.569C424.675 367.004 416.11 361.541 406.898 357.576C402.061 356.078 397.138 354.532 392.1 353.88C379.35 352.23 364.963 355.278 353.643 361.215C339.214 368.784 328.181 382.947 323.426 398.469C318.171 415.621 320.445 432.156 328.837 447.934C336.522 462.383 350.25 474.707 366 479.602C380.228 484.025 398.711 483.416 411.908 476.286C427.448 467.891 440.011 452.123 445.009 435.234C449.852 418.87 447.801 401.262 439.535 386.336L437.041 381.847ZM406.898 357.576C416.11 361.541 424.675 367.004 431.337 374.569C433.361 376.868 434.984 379.649 437.041 381.847L437.444 381.523C438.03 382.033 438.363 382.321 439.137 382.518C440.407 382.841 442.254 384.979 443.438 385.863L443.905 385.51L443.344 384.656L443.815 384.203L444.375 384.375L445.031 384.561L445.312 385.567L445.425 385.255C446.598 381.986 446.685 381.305 445.208 378.195L445.589 377.355C444.977 376.008 443.769 374.696 442.865 373.523C440.803 370.846 438.666 368.25 436.236 365.899C431.313 360.471 424.457 355.487 417.872 352.314C418.272 353.605 419.406 353.753 419.763 354.918C419.507 355.392 419.29 355.737 418.969 356.156L419.062 356.875C417.992 356.651 417.62 356.198 416.816 355.5L417.566 354.375C416.026 352.277 414.355 351.303 412.099 350.149L409.038 352.267C407.876 352.991 407.029 354.267 406.929 355.688C406.862 356.644 407.023 355.754 407.062 356.556L406.933 357.318L406.898 357.576ZM353.834 350.462L353.908 350.798C353.411 351.561 352.78 352.305 351.887 352.594C350.928 352.904 350.062 353.23 349.168 353.706C348.667 354.822 347.858 355.657 347.062 356.569L345.75 357.067C344.996 357.497 344.817 357.78 343.898 357.863L343.312 357.879L342.736 358.861C341.772 359.336 341.717 359.472 340.688 359.235L339.26 360.645L338.88 362.025C338.704 362.589 338.71 362.291 338.863 362.877C339.768 362.321 340.616 361.62 341.379 360.879C342.162 360.118 342.789 359.241 343.899 358.983C344.761 358.783 344.415 358.961 345.12 358.478C345.8 358.012 345.383 358.207 346.122 357.932C347.053 357.586 347.84 357.301 348.41 356.437L348.663 355.975L349.248 356.127C350.248 354.793 351.362 354.016 353.003 353.621C353.908 353.402 353.799 353.404 354.415 352.806C354.608 353.324 354.856 353.749 355.131 354.225C356.429 354.872 357.242 354.938 358.682 354.896C360.207 353.956 360.756 353.69 361.599 352.124C362.022 351.34 363.008 351.797 364.031 351.186L364.125 352.875L364.573 353.062L366.206 350.344L365.25 350.25L365.099 349.787L366.028 349.43L366.056 348.75C364.852 347.673 364.655 347.668 363.036 347.478C363.518 347.241 363.691 346.946 364.02 346.532C360.764 347.602 356.636 348.518 353.834 350.462ZM390.021 343.808L390.205 344.446C391.368 344.679 392.452 344.92 393.562 345.342L393.451 345.958L393.773 346.08C394.883 346.514 395.435 346.906 396.246 347.773C397.99 348.23 399.811 347.868 401.595 347.838C402.326 347.826 402.675 347.697 403.312 347.369L404.532 347.693C406.369 348.308 408.408 348.775 410.167 349.54C411.298 349.875 411.654 350.178 412.767 349.712C406.013 346.288 397.558 344.239 390.021 343.808ZM404.532 347.693L405.74 349.688L405.15 351.133L405.562 351.613C407.338 351.537 408.633 350.429 410.167 349.54C408.408 348.775 406.369 348.308 404.532 347.693Z"/>
	<defs>
		<linearGradient id="gradient_3" gradientUnits="userSpaceOnUse" x1="408.35889" y1="349.42081" x2="405.18512" y2="350.0661">
			<stop offset="0" stop-color="white" stop-opacity="0.027450981"/>
			<stop offset="1" stop-color="white" stop-opacity="0.082352944"/>
		</linearGradient>
	</defs>
	<path fill="url(#gradient_3)" transform="scale(0.666667 0.666667)" d="M404.532 347.693C406.369 348.308 408.408 348.775 410.167 349.54C408.633 350.429 407.338 351.537 405.562 351.613L405.15 351.133L405.74 349.688L404.532 347.693Z"/>
	<path fill="white" fill-opacity="0.30980393" transform="scale(0.666667 0.666667)" d="M353.834 350.462C356.636 348.518 360.764 347.602 364.02 346.532C363.691 346.946 363.518 347.241 363.036 347.478C364.655 347.668 364.852 347.673 366.056 348.75L366.028 349.43L365.099 349.787L365.25 350.25L366.206 350.344L364.573 353.062L364.125 352.875L364.031 351.186C363.008 351.797 362.022 351.34 361.599 352.124C360.756 353.69 360.207 353.956 358.682 354.896C357.242 354.938 356.429 354.872 355.131 354.225C354.856 353.749 354.608 353.324 354.415 352.806C353.799 353.404 353.908 353.402 353.003 353.621C351.362 354.016 350.248 354.793 349.248 356.127L348.663 355.975L348.41 356.437C347.84 357.301 347.053 357.586 346.122 357.932C345.383 358.207 345.8 358.012 345.12 358.478C344.415 358.961 344.761 358.783 343.899 358.983C342.789 359.241 342.162 360.118 341.379 360.879C340.616 361.62 339.768 362.321 338.863 362.877C338.71 362.291 338.704 362.589 338.88 362.025L339.26 360.645L340.688 359.235C341.717 359.472 341.772 359.336 342.736 358.861L343.312 357.879L343.898 357.863C344.817 357.78 344.996 357.497 345.75 357.067L347.062 356.569C347.858 355.657 348.667 354.822 349.168 353.706C350.062 353.23 350.928 352.904 351.887 352.594C352.78 352.305 353.411 351.561 353.908 350.798L353.834 350.462Z"/>
	<path fill="white" fill-opacity="0.26274511" transform="scale(0.666667 0.666667)" d="M406.898 357.576L406.933 357.318L407.062 356.556C407.023 355.754 406.862 356.644 406.929 355.688C407.029 354.267 407.876 352.991 409.038 352.267L412.099 350.149C414.355 351.303 416.026 352.277 417.566 354.375L416.816 355.5C417.62 356.198 417.992 356.651 419.062 356.875L418.969 356.156C419.29 355.737 419.507 355.392 419.763 354.918C419.406 353.753 418.272 353.605 417.872 352.314C424.457 355.487 431.313 360.471 436.236 365.899C438.666 368.25 440.803 370.846 442.865 373.523C443.769 374.696 444.977 376.008 445.589 377.355L445.208 378.195C446.685 381.305 446.598 381.986 445.425 385.255L445.312 385.567L445.031 384.561L444.375 384.375L443.815 384.203L443.344 384.656L443.905 385.51L443.438 385.863C442.254 384.979 440.407 382.841 439.137 382.518C438.363 382.321 438.03 382.033 437.444 381.523L437.041 381.847C434.984 379.649 433.361 376.868 431.337 374.569C424.675 367.004 416.11 361.541 406.898 357.576ZM417.872 352.314C418.272 353.605 419.406 353.753 419.763 354.918C421.449 356.256 424.307 357.564 425.531 359.156C424.623 359.183 423.854 359.254 423 358.875L422.066 359.062L422.928 359.995C423.386 360.524 423.443 361.39 423.562 362.059C424.103 362.396 424.449 362.767 425.096 362.772C426.283 362.781 426.628 362.903 427.688 363.398C428.485 363.771 429.211 363.713 430.059 363.667L430.766 363.637C431.082 364.347 431.18 364.865 431.304 365.623C432.005 365.218 431.493 364.557 432.402 364.83C433.221 365.076 433.55 365.476 434.142 366.06C434.925 366.114 435.485 366.144 436.236 365.899C431.313 360.471 424.457 355.487 417.872 352.314Z"/>
	<defs>
		<linearGradient id="gradient_4" gradientUnits="userSpaceOnUse" x1="427.90558" y1="360.21045" x2="428.21942" y2="362.41455">
			<stop offset="0" stop-color="white" stop-opacity="0.13725491"/>
			<stop offset="1" stop-color="white" stop-opacity="0.18039216"/>
		</linearGradient>
	</defs>
	<path fill="url(#gradient_4)" transform="scale(0.666667 0.666667)" d="M417.872 352.314C424.457 355.487 431.313 360.471 436.236 365.899C435.485 366.144 434.925 366.114 434.142 366.06C433.55 365.476 433.221 365.076 432.402 364.83C431.493 364.557 432.005 365.218 431.304 365.623C431.18 364.865 431.082 364.347 430.766 363.637L430.059 363.667C429.211 363.713 428.485 363.771 427.688 363.398C426.628 362.903 426.283 362.781 425.096 362.772C424.449 362.767 424.103 362.396 423.562 362.059C423.443 361.39 423.386 360.524 422.928 359.995L422.066 359.062L423 358.875C423.854 359.254 424.623 359.183 425.531 359.156C424.307 357.564 421.449 356.256 419.763 354.918C419.406 353.753 418.272 353.605 417.872 352.314Z"/>
	<defs>
		<linearGradient id="gradient_5" gradientUnits="userSpaceOnUse" x1="435.66336" y1="452.78177" x2="332.05762" y2="381.79782">
			<stop offset="0" stop-color="#76D474"/>
			<stop offset="1" stop-color="#ACF1A9"/>
		</linearGradient>
	</defs>
	<path fill="url(#gradient_5)" transform="scale(0.666667 0.666667)" d="M437.041 381.847L439.535 386.336C447.801 401.262 449.852 418.87 445.009 435.234C440.011 452.123 427.448 467.891 411.908 476.286C398.711 483.416 380.228 484.025 366 479.602C350.25 474.707 336.522 462.383 328.837 447.934C320.445 432.156 318.171 415.621 323.426 398.469C328.181 382.947 339.214 368.784 353.643 361.215C364.963 355.278 379.35 352.23 392.1 353.88C397.138 354.532 402.061 356.078 406.898 357.576C416.11 361.541 424.675 367.004 431.337 374.569C433.361 376.868 434.984 379.649 437.041 381.847ZM372.8 417.522L389.616 424.738L389.658 424.469C389.729 423.854 389.731 423.367 389.999 422.796C390.28 422.195 390.331 421.794 390.268 421.128C390.168 420.085 390.162 419.613 390.632 418.618C392.444 417.298 393.516 418.036 395.289 417.305C397.43 416.422 397.639 415.081 398.381 413.013C399.192 412.682 399.298 412.622 400.125 413.059C400.974 413.507 401.395 413.457 402.348 413.515C394.832 407.8 384.557 406.863 377.492 400.458L377.293 400.177C375.866 398.082 375.641 396.55 376.108 394.074L377.953 393.489C379.003 392.764 380.323 392.632 381.562 392.376C387.612 391.126 392.755 391.757 398.787 392.854L407.749 394.364C408.237 392.292 408.148 390.143 408.175 388.024L409.36 380.189C408.757 379.756 408.32 379.598 407.627 379.359C406.846 379.542 406.559 379.582 405.773 379.298C404.992 379.016 405.128 378.921 404.812 378.238C402.001 377.128 399.09 376.009 396.133 375.369L394.312 374.315C393.374 371.926 393.762 368.969 393.905 366.46L393.562 364.66C389.511 363.92 385.071 364.248 380.969 364.486L381.024 375.881C373.986 377.502 366.771 379.929 362.61 386.278C359.822 390.532 358.661 396.808 359.796 401.821C361.267 408.322 365.89 412.421 370.999 416.181C371.336 416.429 372.632 417.192 372.8 417.522ZM389.616 424.738C393.539 426.862 396.263 428.697 398.072 432.994C398.743 434.269 398.539 435.555 398.101 436.935C397.248 439.623 395.144 441.908 392.584 443.067C385.372 446.333 374.335 443.22 366.991 441.108C366.004 440.824 360.248 438.885 360.021 439.571C359.734 440.434 359.766 441.847 359.708 442.764C359.509 445.892 359.243 449.371 359.798 452.456C360.194 452.875 360.523 453.218 360.997 453.551C361.171 455.244 361.862 456.341 363.181 457.434C367.987 461.418 375.071 460.874 380.216 464.438L381.76 465.509L383.051 474.03L389.888 473.636L396.719 473.281L396.759 456.443C397.283 456.183 397.79 455.963 398.351 455.796C400.887 455.038 403.218 454.108 405.468 452.704C410.454 449.591 412.581 445.222 413.872 439.634L413.88 439.483C414.754 434.777 414.434 430.829 413.127 426.25C411.785 422.544 409.56 419.566 406.996 416.628C406.817 416.625 402.929 413.864 402.348 413.515C401.395 413.457 400.974 413.507 400.125 413.059C399.298 412.622 399.192 412.682 398.381 413.013C397.639 415.081 397.43 416.422 395.289 417.305C393.516 418.036 392.444 417.298 390.632 418.618C390.162 419.613 390.168 420.085 390.268 421.128C390.331 421.794 390.28 422.195 389.999 422.796C389.731 423.367 389.729 423.854 389.658 424.469L389.616 424.738Z"/>
	<path fill="#37B85B" transform="scale(0.666667 0.666667)" d="M376.108 394.074L377.953 393.489C377.948 395.358 378.41 398.944 377.492 400.458L377.293 400.177C375.866 398.082 375.641 396.55 376.108 394.074Z"/>
	<path fill="#37B85B" transform="scale(0.666667 0.666667)" d="M393.905 366.46L394.244 364.688C395.212 364.602 395.404 364.666 396.298 365.062C396.693 368.054 396.853 372.433 396.133 375.369L394.312 374.315C393.374 371.926 393.762 368.969 393.905 366.46Z"/>
	<path fill="#37B85B" transform="scale(0.666667 0.666667)" d="M372.8 417.522L389.616 424.738C393.539 426.862 396.263 428.697 398.072 432.994C396.927 432.905 396.392 432.37 395.438 431.738C390.985 428.788 385.962 427.406 381.232 425.05C378.084 423.482 373.954 420.987 372.8 417.522Z"/>
	<path fill="#37B85B" transform="scale(0.666667 0.666667)" d="M409.36 380.189C411.352 380.534 412.681 381.226 414.341 382.374C414.47 385.218 415.203 392.229 413.403 394.515C413.024 394.996 412.35 395.193 411.75 395.235C410.483 395.324 408.905 394.825 407.749 394.364C408.237 392.292 408.148 390.143 408.175 388.024L409.36 380.189Z"/>
	<path fill="#37B85B" transform="scale(0.666667 0.666667)" d="M406.996 416.628C409.089 416.68 411.294 418.948 412.66 420.4C417.185 425.212 419.811 432.069 419.527 438.702C419.299 444.029 417.687 449.026 413.634 452.709C409.898 456.105 405.453 457.753 400.774 459.402C400.883 463.619 401.402 468.458 400.312 472.551C399.169 473.409 398.101 473.279 396.719 473.281L396.759 456.443C397.283 456.183 397.79 455.963 398.351 455.796C400.887 455.038 403.218 454.108 405.468 452.704C410.454 449.591 412.581 445.222 413.872 439.634L413.88 439.483C414.754 434.777 414.434 430.829 413.127 426.25C411.785 422.544 409.56 419.566 406.996 416.628Z"/>
	<defs>
		<linearGradient id="gradient_6" gradientUnits="userSpaceOnUse" x1="387.47495" y1="469.52795" x2="385.04733" y2="413.08398">
			<stop offset="0" stop-color="white" stop-opacity="0.6156863"/>
			<stop offset="1" stop-color="white" stop-opacity="0.94901961"/>
		</linearGradient>
	</defs>
	<path fill="url(#gradient_6)" transform="scale(0.666667 0.666667)" d="M389.616 424.738L389.658 424.469C389.729 423.854 389.731 423.367 389.999 422.796C390.28 422.195 390.331 421.794 390.268 421.128C390.168 420.085 390.162 419.613 390.632 418.618C392.444 417.298 393.516 418.036 395.289 417.305C397.43 416.422 397.639 415.081 398.381 413.013C399.192 412.682 399.298 412.622 400.125 413.059C400.974 413.507 401.395 413.457 402.348 413.515C402.929 413.864 406.817 416.625 406.996 416.628C409.56 419.566 411.785 422.544 413.127 426.25C414.434 430.829 414.754 434.777 413.88 439.483L413.872 439.634C412.581 445.222 410.454 449.591 405.468 452.704C403.218 454.108 400.887 455.038 398.351 455.796C397.79 455.963 397.283 456.183 396.759 456.443L396.719 473.281L389.888 473.636L383.051 474.03L381.76 465.509L380.216 464.438C375.071 460.874 367.987 461.418 363.181 457.434C361.862 456.341 361.171 455.244 360.997 453.551C360.523 453.218 360.194 452.875 359.798 452.456C359.243 449.371 359.509 445.892 359.708 442.764C359.766 441.847 359.734 440.434 360.021 439.571C360.248 438.885 366.004 440.824 366.991 441.108C374.335 443.22 385.372 446.333 392.584 443.067C395.144 441.908 397.248 439.623 398.101 436.935C398.539 435.555 398.743 434.269 398.072 432.994C396.263 428.697 393.539 426.862 389.616 424.738ZM389.888 473.636L396.719 473.281L396.759 456.443C396.147 457.423 396.011 457.898 395.848 459.065C395.691 460.185 395.438 462.222 394.633 462.945C394.043 463.474 393.656 463.991 393.191 464.625L393.188 468L392.441 468.188L392.344 468.656C391.775 468.011 391.769 467.51 391.594 466.689C391.361 465.598 391.266 465.318 390.375 464.625C390.121 465.326 390.156 464.922 390.286 465.512C390.509 466.524 390.425 467.532 390.711 468.528C390.897 469.177 390.67 469.795 390.527 470.438L391.5 472.442L392.22 472.688C391.467 473.287 390.799 473.393 389.888 473.636ZM413.127 426.25C411.935 427.287 411.026 427.878 410.903 429.564C410.685 432.568 409.412 438.617 411.381 440.998L412.312 441.934L412.873 441.748L413.024 441.232C413.234 440.592 413.491 440.178 413.872 439.634L413.88 439.483C414.754 434.777 414.434 430.829 413.127 426.25Z"/>
	<path fill="white" fill-opacity="0.75686276" transform="scale(0.666667 0.666667)" d="M413.127 426.25C414.434 430.829 414.754 434.777 413.88 439.483L413.872 439.634C413.491 440.178 413.234 440.592 413.024 441.232L412.873 441.748L412.312 441.934L411.381 440.998C409.412 438.617 410.685 432.568 410.903 429.564C411.026 427.878 411.935 427.287 413.127 426.25Z"/>
	<defs>
		<linearGradient id="gradient_7" gradientUnits="userSpaceOnUse" x1="391.87949" y1="469.44214" x2="394.9194" y2="469.67807">
			<stop offset="0" stop-color="white" stop-opacity="0.71764708"/>
			<stop offset="1" stop-color="white" stop-opacity="0.78431374"/>
		</linearGradient>
	</defs>
	<path fill="url(#gradient_7)" transform="scale(0.666667 0.666667)" d="M389.888 473.636C390.799 473.393 391.467 473.287 392.22 472.688L391.5 472.442L390.527 470.438C390.67 469.795 390.897 469.177 390.711 468.528C390.425 467.532 390.509 466.524 390.286 465.512C390.156 464.922 390.121 465.326 390.375 464.625C391.266 465.318 391.361 465.598 391.594 466.689C391.769 467.51 391.775 468.011 392.344 468.656L392.441 468.188L393.188 468L393.191 464.625C393.656 463.991 394.043 463.474 394.633 462.945C395.438 462.222 395.691 460.185 395.848 459.065C396.011 457.898 396.147 457.423 396.759 456.443L396.719 473.281L389.888 473.636Z"/>
	<path fill="#50CE68" transform="scale(0.666667 0.666667)" d="M360.997 453.551C365.025 455.219 368.866 456.476 373.161 457.267C375.787 457.751 378.704 457.521 381.375 457.488L381.76 465.509L380.216 464.438C375.071 460.874 367.987 461.418 363.181 457.434C361.862 456.341 361.171 455.244 360.997 453.551Z"/>
	<defs>
		<linearGradient id="gradient_8" gradientUnits="userSpaceOnUse" x1="407.15765" y1="391.35626" x2="359.65176" y2="397.37732">
			<stop offset="0" stop-color="white" stop-opacity="0.91764706"/>
			<stop offset="1" stop-color="white"/>
		</linearGradient>
	</defs>
	<path fill="url(#gradient_8)" transform="scale(0.666667 0.666667)" d="M372.8 417.522C372.632 417.192 371.336 416.429 370.999 416.181C365.89 412.421 361.267 408.322 359.796 401.821C358.661 396.808 359.822 390.532 362.61 386.278C366.771 379.929 373.986 377.502 381.024 375.881L380.969 364.486C385.071 364.248 389.511 363.92 393.562 364.66L393.905 366.46C393.762 368.969 393.374 371.926 394.312 374.315L396.133 375.369C399.09 376.009 402.001 377.128 404.812 378.238C405.128 378.921 404.992 379.016 405.773 379.298C406.559 379.582 406.846 379.542 407.627 379.359C408.32 379.598 408.757 379.756 409.36 380.189L408.175 388.024C408.148 390.143 408.237 392.292 407.749 394.364L398.787 392.854C392.755 391.757 387.612 391.126 381.562 392.376C380.323 392.632 379.003 392.764 377.953 393.489L376.108 394.074C375.641 396.55 375.866 398.082 377.293 400.177L377.492 400.458C384.557 406.863 394.832 407.8 402.348 413.515C401.395 413.457 400.974 413.507 400.125 413.059C399.298 412.622 399.192 412.682 398.381 413.013C397.639 415.081 397.43 416.422 395.289 417.305C393.516 418.036 392.444 417.298 390.632 418.618C390.162 419.613 390.168 420.085 390.268 421.128C390.331 421.794 390.28 422.195 389.999 422.796C389.731 423.367 389.729 423.854 389.658 424.469L389.616 424.738L372.8 417.522Z"/>
	<path fill="#50CE68" transform="scale(0.666667 0.666667)" d="M376.108 394.074C376.623 392.594 377.214 391.673 378.562 390.819C381.623 388.882 385.447 389.285 388.865 389.574C393.642 389.978 398.285 390.588 402.976 391.593L408.175 388.024C408.148 390.143 408.237 392.292 407.749 394.364L398.787 392.854C392.755 391.757 387.612 391.126 381.562 392.376C380.323 392.632 379.003 392.764 377.953 393.489L376.108 394.074Z"/>
</svg>
