<?xml version="1.0" encoding="utf-8" ?>
<svg xmlns="http://www.w3.org/2000/svg" xmlns:xlink="http://www.w3.org/1999/xlink" width="512" height="512">
	<defs>
		<linearGradient id="gradient_0" gradientUnits="userSpaceOnUse" x1="448.75662" y1="49.039101" x2="480.67139" y2="27.14398">
			<stop offset="0" stop-color="#001D63"/>
			<stop offset="1" stop-color="#0F66B0"/>
		</linearGradient>
	</defs>
	<path fill="url(#gradient_0)" d="M416.395 1.67177C418.874 1.73844 421.428 1.75792 423.866 2.2357C458.71 4.39922 492.289 34.8107 504.004 66.5757C505.436 70.4582 506.825 74.6206 507.314 78.7411C505.805 78.2395 506.043 77.5367 505.569 76C493.702 37.5215 468.07 12.9069 428.693 6.12143C427.138 5.85347 425.38 5.73371 423.891 5.24439L423.423 5.08256L422.424 4.91528C419.594 4.26159 417.944 4.1273 416.395 1.67177Z"/>
	<defs>
		<linearGradient id="gradient_1" gradientUnits="userSpaceOnUse" x1="43.104992" y1="494.12494" x2="55.178204" y2="471.8992">
			<stop offset="0" stop-color="#002B7E"/>
			<stop offset="1" stop-color="#1F8AB4"/>
		</linearGradient>
	</defs>
	<path fill="url(#gradient_1)" d="M7.2141 445.674C8.2833 446.435 8.89697 448.009 9.51253 449.165L18.1548 463.992C21.4425 467.997 24.1811 472.32 27.7639 476.11C43.2668 492.513 63.677 502.143 85.6345 506.471C88.5108 507.038 91.0228 508.836 93.8735 509.143L94.6398 509.245C95.4741 509.374 96.2819 509.405 97.1099 509.601C95.6112 510.205 94.2236 510.185 92.6333 510.227C85.1726 509.767 77.9613 509.043 70.75 506.988C50.2188 501.138 27.1566 484.422 16.6037 465.568L16.4938 465.515C12.5666 459.621 8.45841 452.71 7.2141 445.674Z"/>
	<defs>
		<linearGradient id="gradient_2" gradientUnits="userSpaceOnUse" x1="444.79059" y1="519.32312" x2="468.10754" y2="420.5799">
			<stop offset="0" stop-color="#003173"/>
			<stop offset="1" stop-color="#1A5DB1"/>
		</linearGradient>
	</defs>
	<path fill="url(#gradient_2)" d="M431.559 505.734C432.581 505.799 433.937 505.41 434.945 505.166L442.427 502.97C448.954 500.737 458.237 496.719 464.015 493.146C474.869 486.435 491.1 471.413 496.546 460.119C498.4 456.274 502.052 447.161 503.264 442.989L505.594 434.641C506.266 432.232 506.042 431.058 508.269 429.725C502.43 468.497 475.101 500.241 435.918 508.202C433.698 508.653 431.169 509.237 428.912 509.269C425.173 510.126 421.285 510.117 417.469 510.145L403.854 510.157C408.164 509.921 417.081 510.89 420.374 507.984C422.151 506.416 424.116 506.48 426.375 506.228L431.559 505.734Z"/>
	<path fill="#000B4E" d="M88.8404 2.22267C91.3475 2.25326 94.0556 1.42182 96.6477 1.35592L401.657 1.24901C406.538 1.26682 411.53 1.56446 416.395 1.25945C417.944 4.1273 419.594 4.26159 422.424 4.91528L423.423 5.08256L423.891 5.24439C425.38 5.73371 427.138 5.85347 428.693 6.12143C468.07 12.9069 493.702 37.5215 505.569 76C506.043 77.5367 505.805 78.2395 507.314 78.7411C509.703 90.9556 509.396 102.499 509.397 114.887L509.383 401.161C509.373 410.871 509.462 420.084 508.269 429.725C506.042 431.058 506.266 432.232 505.594 434.641L503.264 442.989C502.052 447.161 498.4 456.274 496.546 460.119C491.1 471.413 474.869 486.435 464.015 493.146C458.237 496.719 448.954 500.737 442.427 502.97L434.945 505.166C433.937 505.41 432.581 505.799 431.559 505.734L426.375 506.228C424.116 506.48 422.151 506.416 420.374 507.984C417.081 510.89 408.164 509.921 403.854 510.13L139.116 510.189L97.1099 509.975C96.2819 509.405 95.4741 509.374 94.6398 509.245L93.8735 509.143C91.0228 508.836 88.5108 507.038 85.6345 506.471C63.677 502.143 43.2668 492.513 27.7639 476.11C24.1811 472.32 21.4425 467.997 18.1548 463.992L9.51253 449.165C8.89697 448.009 8.2833 446.435 7.2141 445.674C3.7981 437.251 2.43311 427.563 1.94081 418.541L1.83491 117.033C1.83314 102.503 1.4023 89.5248 4.97237 75.3272C5.57542 72.0813 6.81754 68.7817 7.97936 65.6891C21.0037 31.0201 51.9828 7.01368 88.8404 2.22267ZM116.153 397.407C120.267 395.69 127.029 396.775 131.499 396.778L144.568 396.789C150.78 396.794 155.738 396.782 161 400.481L161.327 400.708C174.657 410.234 171.196 424.514 179.494 431.771C185.252 436.807 205.729 420.435 213.375 418.248L213.822 418.115C225.714 414.743 234.544 419.685 242.536 427.64L250.04 435.598C252.494 438.471 254.893 441.715 257.962 443.951C276.072 433.966 276.205 413.72 304.299 426.041L318.75 433.02C322.308 434.704 327.43 437.649 331.25 434.981C334.374 432.8 339.259 422.295 342.511 421.752L343.433 421.587C344.616 416.192 352.537 406.492 356.966 404.175C361.75 401.671 367.534 401.717 372.794 401.695L384.009 401.658C389.036 401.636 394.786 402.836 397.398 397.791L397.607 397.375C400.034 392.736 398.097 385.529 397.802 380.508L397.569 365.823C397.57 363.73 397.265 360.695 397.958 358.731L398.085 358.397C403.947 342.31 437.257 355.276 441.24 337.306L441.375 336.669C444.872 323.521 424.835 305.939 429.043 292.633L429.118 292.415C429.762 291.758 430.173 290.253 430.715 289.422C438.728 277.143 460.885 268.502 456.914 254.407C449.891 238.845 423.638 230.792 431.358 210.467C435.478 199.619 449.755 181.182 438.25 172.273C432.534 167.847 416.747 168.607 407.133 162.367L406.777 162.14C398.289 156.544 399.355 143.574 399.816 134.788L400.358 123.773C400.427 121.479 400.657 118.778 399.757 116.625L399.627 116.307C398.209 113.005 395.854 111.41 392.439 111.388L372.25 110.978C369.096 110.85 365.803 111.071 362.681 110.599C350.16 108.706 347.145 95.8145 343.204 85.8172C328.734 49.1121 307.89 104.119 279.63 76.7649L271.38 68.3835C268.738 65.5394 266.164 62.5332 263 60.2464L262.689 60.0191C260.135 58.1865 257.121 57.3231 254 57.8218L252.498 58.2514C241.587 61.6989 234.864 80.19 220.5 84.2535L220.042 84.389C205.703 88.4981 191.724 70.198 179.375 73.6582L179.007 73.7582C178.057 74.0266 177.274 74.4449 176.413 74.9127L176.143 75.0521C175.119 75.6028 174.222 76.6048 173.435 77.4493C161.419 90.3373 171.299 113.735 139.977 113.776L126.857 113.744C123.871 113.737 120.384 113.389 117.625 114.687L117.311 114.825C111.044 117.668 112.635 126.587 113.245 132.151C113.641 135.757 113.481 139.556 113.466 143.19C113.37 167.722 104.144 165.456 83.5047 170.404C78.2048 171.674 72.4489 173.372 70.3808 179.001L70.1035 179.76C66.1951 191.027 89.827 209.404 82.5879 225.178L81.3993 227.346C80.2702 229.261 78.6456 231.003 77.1739 232.66L69.1319 241.065C64.3245 245.787 55.5804 252.965 56.2484 260.625L57.085 260.943C57.4899 260.835 57.7334 260.834 58.1407 260.875L58.125 261.377C57.7813 261.536 57.4621 261.672 57.1018 261.792C58.8962 272.337 81.5886 280.29 83.9122 294.888C86.5307 311.339 64.4999 328.261 72.4236 341.324L72.5779 341.596C80.0649 354.541 103.351 342.449 112.52 356.917C120.919 370.171 110.197 385.493 116.153 397.407ZM116.153 397.434C119.166 402.664 127.581 401.539 133.237 401.663L145.948 402.195C162.29 403.161 164.149 409.048 169.389 424.587C174.632 440.132 179.358 443.517 194.55 436.469L205.919 431.015C224.375 422.527 230.756 430.969 242.998 444.968C244.842 447.076 246.818 449.772 249.195 451.264C266.396 462.055 274.607 429.107 292.343 429.403C301.837 429.561 311.301 436.519 319.903 440.014C337.287 447.076 338.562 435.493 343.433 421.587L342.511 421.752C339.259 422.295 334.374 432.8 331.25 434.981C327.43 437.649 322.308 434.704 318.75 433.02L304.299 426.041C276.205 413.72 276.072 433.966 257.962 443.951C254.893 441.715 252.494 438.471 250.04 435.598L242.536 427.64C234.544 419.685 225.714 414.743 213.822 418.115L213.375 418.248C205.729 420.435 185.252 436.807 179.494 431.771C171.196 424.514 174.657 410.234 161.327 400.708L161 400.481C155.738 396.782 150.78 396.794 144.568 396.789L131.499 396.778C127.029 396.775 120.267 395.69 116.153 397.434Z"/>
	<path fill="#0A4093" d="M4.97237 75.3272C5.57542 72.0813 6.81754 68.7817 7.97936 65.6891C21.0037 31.0201 51.9828 7.01368 88.8404 2.22267C87.7535 2.9788 86.6946 2.7449 85.75 3.3725L84.0508 3.55352C82.6374 3.32266 80.9705 4.26487 79.5 4.31125L77.4595 4.83148C76.5265 4.92627 77.7855 4.78329 76.75 5.06125L72.5 6.125C71.9889 6.23143 70.8421 6.53382 70.5 6.8725L70.0625 6.8125C69.2509 7.15311 68.4871 7.57238 68.0625 8.37625L68.5 8.43875C69.0542 8.55338 69.037 8.5549 69.3725 9L71.3164 9.06641C71.6272 9.00424 72.6664 8.74371 73.375 8.5L75.5742 8.06641C79.0485 7.37155 83.3282 6.77356 86.625 6L88.173 6.0625C59.8724 8.53236 32.6348 24.0389 18.223 48.8104C17.1445 50.6641 13.8741 58.4958 12.8125 59.4922C12.5902 57.1426 16.8068 52.1768 17.2512 49.5625L17.4888 49.3125C17.8959 48.8534 18.0213 48.3428 18.5 47.875L20.875 43.6225L19.4609 44.5938C19.1875 44.9279 18.9819 45.264 18.75 45.625L17.7539 47.1016C17.3824 47.6589 17.1733 48.208 16.75 48.75L15.5195 50.5696C15.3026 50.8789 15.1739 51.1692 15 51.5L14.7657 51.9181C14.4997 52.4121 14.5794 52.197 14.4988 52.7488L13.9375 53.7488C13.5808 54.5608 12.9076 55.0028 12.7488 55.9375L10.9798 59.7227C10.8245 60.1397 10.9211 59.9 10.6837 60.375L9.42203 63.3984C9.13934 63.9638 9.11424 64.4414 8.75 65L8.8725 65.375C8.42653 65.824 8.01803 66.8918 7.875 67.5L6.24219 72.3828C6.06899 72.9024 5.8868 74.5595 5.62834 74.8661L4.97237 75.3272Z"/>
	<path fill="#005328" d="M250.368 129.393L250.995 129.287C300.696 127.816 346.83 153.372 369.059 198.007C392.04 244.151 388.301 302.633 352.131 341.103C329.974 364.67 296.432 380.83 263.813 381.799C221.486 382.514 183.936 368.947 157.072 334.517C124.72 293.054 122.552 233.543 150.217 189.031C172.761 152.758 208.482 132.397 250.368 129.393ZM336.212 198.587C329.567 199.368 324.468 204.81 319.854 209.163L256.69 265.509C249.948 271.54 250.188 272.656 242.469 266.965L220.986 250.55C217.899 248.184 214.89 245.513 211.624 243.409C202.335 237.423 189.053 248.571 189.973 258.735C190.319 262.566 199.451 271.453 202.027 274.306L212.058 285.62L230.733 307C238.43 315.712 245.405 328.747 256.415 318.606C261.95 313.508 266.768 307.266 271.662 301.543L294.115 276.018L339.892 227.28C343.833 223.678 349.819 219.237 350.002 213.375C350.237 205.813 343.711 198.933 336.212 198.587Z"/>
</svg>
